{"glyphs":{"0":{"ha":881,"x_min":83,"x_max":796,"o":"m 588 8 q 556 -6 588 8 q 439 -19 524 -19 q 291 8 354 -19 q 188 83 228 36 q 125 199 149 129 q 92 342 101 268 q 83 507 83 415 q 92 672 83 599 q 125 815 101 746 q 188 931 149 885 q 290 1006 226 978 q 439 1033 354 1033 q 588 1006 524 1033 q 691 931 651 978 q 754 815 731 885 q 787 672 778 746 q 796 507 796 599 q 787 342 796 415 q 754 199 778 268 q 691 83 731 129 q 588 8 651 36 m 439 78 q 626 188 574 78 q 678 507 678 299 q 556 904 678 826 q 439 935 508 935 q 322 904 369 935 q 250 814 275 874 q 203 507 203 706 q 322 108 203 186 q 439 78 369 78 z "},"1":{"ha":881,"x_min":197,"x_max":740,"o":"m 203 863 l 203 938 q 439 1014 354 954 l 529 1014 l 529 99 l 740 99 l 740 0 l 197 0 l 197 99 l 407 99 l 407 863 l 203 863 z "},"2":{"ha":881,"x_min":111,"x_max":768,"o":"m 132 774 q 221 965 143 897 q 448 1033 299 1033 q 677 960 597 1033 q 757 761 757 888 q 710 596 757 674 q 581 428 664 518 l 274 99 l 768 99 l 768 0 l 111 0 l 111 93 l 503 517 q 605 644 572 590 q 638 771 638 699 q 588 889 638 843 q 440 935 539 935 q 238 757 249 935 l 132 774 z "},"3":{"ha":881,"x_min":99,"x_max":771,"o":"m 204 242 q 431 79 225 79 q 594 125 536 79 q 653 260 653 171 q 602 402 653 349 q 444 456 551 456 l 318 456 l 318 547 l 446 547 q 589 601 539 547 q 639 743 639 654 q 586 883 639 832 q 432 935 533 935 q 279 888 331 935 q 221 756 228 840 l 117 769 q 206 964 126 894 q 437 1033 285 1033 q 674 955 589 1033 q 758 739 758 876 q 716 599 758 660 q 603 506 674 538 q 726 414 681 478 q 771 254 771 350 q 679 53 771 125 q 426 -19 588 -19 q 99 229 125 -19 l 204 242 z "},"4":{"ha":881,"x_min":44,"x_max":790,"o":"m 667 0 l 547 0 l 547 226 l 44 226 l 44 324 l 492 1014 l 667 1014 l 667 325 l 790 325 l 790 226 l 667 226 l 667 0 m 547 325 l 547 900 l 179 325 l 547 325 z "},"5":{"ha":881,"x_min":136,"x_max":796,"o":"m 454 78 q 620 138 565 78 q 675 300 675 199 q 596 456 675 401 q 322 510 517 510 l 156 510 l 188 1014 l 738 1014 l 738 915 l 289 915 l 268 610 l 333 610 q 683 532 569 610 q 796 306 796 454 q 708 69 796 158 q 462 -19 619 -19 q 224 54 304 -19 q 136 265 144 128 l 242 275 q 454 78 253 78 z "},"6":{"ha":881,"x_min":113,"x_max":807,"o":"m 461 935 q 281 822 332 935 q 232 547 238 729 q 467 583 354 583 q 807 304 807 583 q 721 66 806 151 q 471 -19 636 -19 q 197 108 281 -19 q 113 471 113 235 q 292 993 113 888 q 458 1033 361 1033 q 783 756 767 1033 l 679 744 q 461 935 669 935 m 688 304 q 633 439 688 388 q 463 490 579 490 q 232 456 346 490 q 292 167 238 256 q 465 78 346 78 q 688 304 688 78 z "},"7":{"ha":881,"x_min":113,"x_max":769,"o":"m 113 915 l 113 1014 l 769 1014 l 769 922 l 372 0 l 242 0 l 639 915 l 113 915 z "},"8":{"ha":881,"x_min":97,"x_max":785,"o":"m 97 258 q 265 506 97 436 q 111 742 111 571 q 196 951 111 869 q 441 1033 281 1033 q 686 951 601 1033 q 771 742 771 868 q 615 514 771 583 q 785 258 785 450 q 692 58 785 135 q 442 -19 600 -19 q 190 58 283 -19 q 97 258 97 135 m 394 471 q 262 401 307 457 q 217 262 217 344 q 274 129 217 179 q 440 79 332 79 q 607 130 547 79 q 667 261 667 181 q 629 390 667 342 q 504 453 592 439 l 394 471 m 442 935 q 388 935 442 935 q 282 880 335 935 q 229 744 229 825 q 266 618 229 663 q 393 560 303 574 l 478 546 q 608 613 564 561 q 653 744 653 664 q 601 880 653 825 q 442 935 549 935 z "},"9":{"ha":881,"x_min":81,"x_max":768,"o":"m 197 267 q 422 78 206 78 q 587 165 532 78 q 649 451 642 251 q 428 418 533 418 q 256 442 324 418 q 150 510 188 467 q 81 722 81 592 q 174 942 81 851 q 442 1033 267 1033 q 692 903 617 1033 q 768 518 768 774 q 697 136 768 275 q 414 -19 619 -19 q 182 51 263 -19 q 93 254 101 122 l 197 267 m 200 723 q 200 678 200 723 q 255 574 200 633 q 425 514 310 514 q 650 542 540 514 q 598 844 647 753 q 434 935 549 935 q 260 874 319 935 q 200 723 200 813 z "}," ":{"ha":403,"x_min":0,"x_max":0,"o":""},"!":{"ha":433,"x_min":142,"x_max":292,"o":"m 288 33 q 286 25 288 33 q 267 3 285 17 q 216 -11 249 -11 q 166 3 183 -11 q 145 33 149 17 q 142 70 142 49 q 144 104 142 92 q 153 131 146 117 q 214 160 164 160 q 278 137 264 160 q 292 81 292 114 q 288 33 292 49 m 149 1014 l 282 1014 l 282 786 l 251 265 l 179 265 l 149 786 l 149 1014 z "},"\"":{"ha":561,"x_min":100,"x_max":461,"o":"m 333 1014 l 461 1014 l 461 939 l 433 674 l 361 674 l 333 939 l 333 1014 m 100 1014 l 228 1014 l 228 939 l 200 674 l 128 674 l 100 939 l 100 1014 z "},"#":{"ha":1111,"x_min":78,"x_max":1033,"o":"m 600 -106 l 663 242 l 353 242 l 290 -106 l 169 -106 l 232 242 l 78 242 l 94 339 l 250 339 l 311 674 l 154 674 l 171 771 l 328 771 l 392 1118 l 513 1118 l 449 771 l 758 771 l 822 1118 l 943 1118 l 879 771 l 1033 771 l 1017 674 l 863 674 l 801 339 l 957 339 l 940 242 l 783 242 l 721 -106 l 600 -106 m 432 674 l 371 339 l 681 339 l 742 674 l 432 674 z "},"$":{"ha":875,"x_min":110,"x_max":774,"o":"m 369 463 q 183 549 240 483 q 125 741 125 614 q 187 940 125 868 q 397 1021 249 1013 l 397 1171 l 482 1171 l 482 1021 q 694 940 629 1011 q 758 736 758 869 l 653 729 q 605 876 653 829 q 444 924 557 924 q 288 876 331 924 q 244 733 244 829 q 378 569 244 588 l 513 551 q 712 465 650 532 q 774 278 774 397 q 482 -8 774 7 l 482 -157 l 397 -157 l 397 -8 q 176 73 242 0 q 110 279 110 146 l 215 286 q 267 138 215 186 q 440 89 318 89 q 608 135 561 89 q 656 278 656 182 q 504 442 656 414 l 369 463 z "},"%":{"ha":1361,"x_min":69,"x_max":1256,"o":"m 474 -92 l 771 1021 l 856 1021 l 557 -92 l 474 -92 m 1150 11 q 1036 -11 1108 -11 q 915 30 964 -11 q 851 131 867 71 q 835 281 835 192 q 851 431 835 371 q 915 533 867 492 q 1036 574 964 574 q 1151 551 1108 574 q 1215 488 1193 529 q 1256 282 1256 413 q 1150 11 1256 67 m 964 123 q 975 98 964 123 q 1046 72 986 72 q 1127 123 1106 72 q 1149 281 1149 174 q 1127 440 1149 389 q 1046 490 1106 490 q 964 440 986 490 q 942 281 942 389 q 964 123 942 174 m 386 464 q 271 442 343 442 q 150 483 199 442 q 85 584 101 524 q 69 734 69 644 q 85 884 69 824 q 150 985 101 944 q 271 1026 199 1026 q 385 1004 343 1026 q 450 940 428 982 q 490 735 490 865 q 386 464 490 519 m 199 576 q 210 550 199 576 q 281 525 221 525 q 362 576 340 525 q 383 734 383 626 q 362 892 383 842 q 281 943 340 943 q 199 892 221 943 q 176 734 176 842 q 199 576 176 626 z "},"&":{"ha":881,"x_min":71,"x_max":883,"o":"m 397 935 q 258 888 299 935 q 218 754 218 840 q 264 613 218 668 q 389 557 310 557 l 410 557 l 410 471 q 241 421 292 471 q 190 271 190 371 q 241 125 190 171 q 406 79 292 79 q 568 126 519 79 q 617 265 617 174 l 617 471 l 536 471 l 536 557 l 883 557 l 883 471 l 722 471 l 722 329 q 712 180 722 238 q 669 72 701 122 q 403 -21 607 -21 q 71 265 71 -21 q 124 429 71 365 q 265 521 176 493 q 144 616 190 551 q 99 760 99 681 q 393 1033 99 1033 q 667 836 629 1033 l 564 806 q 397 935 544 935 z "},"'":{"ha":328,"x_min":100,"x_max":228,"o":"m 100 1014 l 228 1014 l 228 939 l 200 674 l 128 674 l 100 939 l 100 1014 z "},"(":{"ha":417,"x_min":81,"x_max":408,"o":"m 408 6 l 408 -92 q 193 -8 263 -92 q 100 197 119 78 q 81 428 81 314 q 85 604 81 543 q 100 733 89 665 q 135 849 111 800 q 193 939 158 897 q 408 1021 263 1021 l 408 924 q 319 897 357 924 q 261 831 282 871 q 228 725 240 790 q 210 504 210 624 q 213 326 210 385 q 228 203 217 268 q 261 99 240 139 q 319 32 282 58 q 408 6 357 6 z "},")":{"ha":417,"x_min":8,"x_max":336,"o":"m 8 924 l 8 1021 q 224 939 154 1021 q 317 733 297 851 q 336 501 336 615 q 332 325 336 386 q 317 197 328 264 q 282 81 306 129 q 224 -8 258 32 q 8 -92 154 -92 l 8 6 q 97 32 60 6 q 156 99 135 58 q 189 203 176 139 q 207 425 207 306 q 203 603 207 544 q 188 726 200 661 q 156 831 176 790 q 97 897 135 871 q 8 924 60 924 z "},"*":{"ha":768,"x_min":36,"x_max":732,"o":"m 321 1082 l 449 1082 l 449 967 l 404 801 l 365 801 l 321 967 l 321 1082 m 36 786 l 75 901 l 185 867 l 329 775 l 317 739 l 146 750 l 36 786 m 232 421 l 131 494 l 199 590 l 331 697 l 361 674 l 300 515 l 232 421 m 638 494 l 536 421 l 468 515 l 406 674 l 438 696 l 569 590 l 638 494 m 693 901 l 732 786 l 622 750 l 451 738 l 440 775 l 582 867 l 693 901 z "},"+":{"ha":806,"x_min":128,"x_max":678,"o":"m 128 394 l 128 489 l 356 489 l 356 717 l 450 717 l 450 489 l 678 489 l 678 394 l 450 394 l 450 167 l 356 167 l 356 394 l 128 394 z "},",":{"ha":314,"x_min":46,"x_max":231,"o":"m 103 -21 q 93 25 103 -7 q 83 80 83 57 q 87 117 83 103 q 107 146 90 132 q 156 160 124 160 q 206 146 189 160 q 227 117 224 132 q 231 66 231 103 q 212 -16 231 29 q 163 -94 193 -61 q 82 -172 117 -146 l 46 -131 q 75 -101 65 -112 q 103 -21 103 -69 z "},"-":{"ha":678,"x_min":94,"x_max":583,"o":"m 94 394 l 94 489 l 583 489 l 583 394 l 94 394 z "},".":{"ha":317,"x_min":83,"x_max":233,"o":"m 230 33 q 228 25 230 33 q 208 3 226 17 q 158 -11 190 -11 q 108 3 125 -11 q 87 33 90 17 q 83 70 83 49 q 85 104 83 92 q 94 131 88 117 q 156 160 106 160 q 219 137 206 160 q 233 81 233 114 q 230 33 233 49 z "},"/":{"ha":444,"x_min":-3,"x_max":447,"o":"m -3 -147 l 326 1076 l 447 1076 l 118 -147 l -3 -147 z "},":":{"ha":317,"x_min":83,"x_max":233,"o":"m 230 33 q 228 25 230 33 q 208 3 226 17 q 158 -11 190 -11 q 108 3 125 -11 q 87 33 90 17 q 83 70 83 49 q 85 104 83 92 q 94 131 88 117 q 156 160 106 160 q 219 137 206 160 q 233 81 233 114 q 230 33 233 49 m 230 609 q 228 601 230 609 q 208 579 226 593 q 158 565 190 565 q 108 579 125 565 q 87 609 90 593 q 83 647 83 625 q 85 681 83 668 q 94 708 88 693 q 156 736 106 736 q 219 713 206 736 q 233 658 233 690 q 230 609 233 625 z "},";":{"ha":314,"x_min":46,"x_max":232,"o":"m 103 -21 q 93 25 103 -7 q 83 80 83 57 q 87 117 83 103 q 107 146 90 132 q 156 160 124 160 q 206 146 189 160 q 227 117 224 132 q 231 66 231 103 q 212 -16 231 29 q 163 -94 193 -61 q 82 -172 117 -146 l 46 -131 q 75 -101 65 -112 q 103 -21 103 -69 m 228 609 q 227 601 228 609 q 207 579 225 593 q 156 565 189 565 q 106 579 124 565 q 85 609 89 593 q 82 647 82 625 q 84 681 82 668 q 92 708 86 693 q 154 736 104 736 q 218 713 204 736 q 232 658 232 690 q 228 609 232 625 z "},"<":{"ha":806,"x_min":124,"x_max":682,"o":"m 124 381 l 124 500 l 682 735 l 682 631 l 215 440 l 682 250 l 682 146 l 124 381 z "},"=":{"ha":806,"x_min":128,"x_max":678,"o":"m 128 536 l 128 631 l 678 631 l 678 536 l 128 536 m 128 253 l 128 347 l 678 347 l 678 253 l 128 253 z "},">":{"ha":806,"x_min":124,"x_max":682,"o":"m 682 500 l 682 381 l 124 146 l 124 250 l 590 440 l 124 631 l 124 735 l 682 500 z "},"?":{"ha":667,"x_min":50,"x_max":631,"o":"m 377 33 q 375 25 377 33 q 356 3 374 17 q 305 -11 338 -11 q 255 3 272 -11 q 234 33 238 17 q 231 70 231 49 q 233 104 231 92 q 242 131 235 117 q 302 160 253 160 q 366 136 351 160 q 381 81 381 113 q 377 33 381 49 m 50 821 q 138 976 67 919 q 341 1033 208 1033 q 552 948 474 1033 q 631 743 631 863 q 358 435 631 529 l 343 265 l 267 265 l 256 476 q 452 584 390 521 q 514 734 514 647 q 467 881 514 821 q 328 940 419 940 q 153 807 179 940 l 50 821 z "},"@":{"ha":1422,"x_min":119,"x_max":1303,"o":"m 714 -132 q 350 -57 478 -132 q 168 147 218 19 q 119 456 119 272 q 263 888 119 732 q 707 1043 407 1043 q 1155 895 1007 1043 q 1303 507 1303 747 q 986 174 1303 174 l 875 174 l 843 258 q 621 160 739 160 q 408 472 408 160 q 665 785 408 785 q 867 735 767 785 l 901 785 l 946 785 l 946 257 l 983 257 q 1147 319 1100 257 q 1193 492 1193 382 q 1168 681 1193 603 q 1089 821 1143 758 q 716 953 975 953 q 347 824 457 953 q 236 456 236 694 q 247 289 236 360 q 289 153 258 218 q 372 47 319 88 q 714 -42 486 -42 l 946 -42 l 946 -132 l 714 -132 m 657 244 q 838 333 753 244 l 838 665 q 686 700 763 700 q 517 472 517 700 q 657 244 517 244 z "},"A":{"ha":872,"x_min":24,"x_max":849,"o":"m 354 1014 l 517 1014 l 849 0 l 728 0 l 629 306 l 243 306 l 144 0 l 24 0 l 354 1014 m 436 906 l 274 403 l 597 403 l 436 906 z "},"B":{"ha":851,"x_min":147,"x_max":788,"o":"m 478 0 l 147 0 l 147 1014 l 425 1014 q 735 754 735 1014 q 589 525 735 579 q 788 271 788 482 q 478 0 788 0 m 269 97 l 476 97 q 619 147 574 97 q 665 282 665 197 q 619 418 665 367 q 476 469 574 469 l 269 469 l 269 97 m 269 568 l 424 568 q 567 615 521 568 q 613 742 613 661 q 567 869 613 822 q 424 917 521 917 l 269 917 l 269 568 z "},"C":{"ha":886,"x_min":103,"x_max":814,"o":"m 493 933 q 300 861 364 933 q 231 656 243 799 q 225 508 225 596 q 231 359 225 421 q 253 242 236 297 q 300 153 271 186 q 493 81 364 81 q 714 308 707 81 l 814 303 q 730 65 804 149 q 493 -19 656 -19 q 181 122 264 -19 q 120 285 138 193 q 103 508 103 376 q 120 731 103 639 q 181 893 138 822 q 493 1033 264 1033 q 718 965 644 1033 q 808 768 792 896 l 710 750 q 493 933 681 933 z "},"D":{"ha":969,"x_min":147,"x_max":853,"o":"m 147 1014 l 456 1014 q 779 864 694 1014 q 837 707 821 792 q 853 519 853 622 q 844 344 853 415 q 808 206 835 274 q 739 96 782 139 q 456 0 640 0 l 147 0 l 147 1014 m 450 917 l 269 917 l 269 97 l 450 97 q 653 175 586 97 q 731 507 731 269 q 653 839 731 744 q 450 917 586 917 z "},"E":{"ha":778,"x_min":147,"x_max":714,"o":"m 147 1014 l 686 1014 l 686 917 l 269 917 l 269 564 l 657 564 l 657 467 l 269 467 l 269 97 l 714 97 l 714 0 l 147 0 l 147 1014 z "},"F":{"ha":719,"x_min":147,"x_max":658,"o":"m 147 1014 l 658 1014 l 658 917 l 269 917 l 269 564 l 626 564 l 626 467 l 269 467 l 269 0 l 147 0 l 147 1014 z "},"G":{"ha":963,"x_min":103,"x_max":829,"o":"m 564 428 l 564 510 l 829 510 l 829 0 l 763 0 l 742 121 q 479 -19 656 -19 q 211 72 300 -19 q 111 328 133 151 q 103 522 103 404 q 120 731 103 639 q 181 893 138 822 q 493 1033 264 1033 q 718 965 644 1033 q 808 768 792 896 l 710 750 q 493 933 681 933 q 300 861 364 933 q 231 656 243 796 q 225 506 225 594 q 231 356 225 418 q 253 238 236 293 q 297 150 269 183 q 476 81 360 81 q 652 137 592 81 q 721 289 713 193 l 721 428 l 564 428 z "},"H":{"ha":1008,"x_min":147,"x_max":861,"o":"m 739 1014 l 861 1014 l 861 0 l 739 0 l 739 458 l 269 458 l 269 0 l 147 0 l 147 1014 l 269 1014 l 269 556 l 739 556 l 739 1014 z "},"I":{"ha":417,"x_min":147,"x_max":269,"o":"m 147 1014 l 269 1014 l 269 0 l 147 0 l 147 1014 z "},"J":{"ha":649,"x_min":22,"x_max":522,"o":"m 522 1014 l 522 254 q 515 147 522 189 q 482 63 507 104 q 263 -19 433 -19 q 69 44 119 -19 q 29 132 36 90 q 22 263 22 185 l 128 263 q 157 120 128 160 q 266 81 186 81 q 373 117 346 81 q 400 254 400 154 l 400 1014 l 522 1014 z "},"K":{"ha":831,"x_min":147,"x_max":811,"o":"m 269 465 l 269 0 l 147 0 l 147 1014 l 269 1014 l 269 563 l 379 563 l 664 1014 l 792 1014 l 471 511 l 811 0 l 679 0 l 371 465 l 269 465 z "},"L":{"ha":669,"x_min":147,"x_max":647,"o":"m 147 0 l 147 1014 l 269 1014 l 269 97 l 647 97 l 647 0 l 147 0 z "},"M":{"ha":1218,"x_min":133,"x_max":1085,"o":"m 892 1014 l 1058 1014 l 1085 0 l 965 0 l 944 854 l 654 86 l 543 86 l 274 846 l 253 0 l 133 0 l 161 1014 l 326 1014 l 600 238 l 892 1014 z "},"N":{"ha":1033,"x_min":147,"x_max":886,"o":"m 764 1014 l 886 1014 l 886 0 l 753 0 l 269 808 l 269 0 l 147 0 l 147 1014 l 281 1014 l 764 204 l 764 1014 z "},"O":{"ha":1001,"x_min":103,"x_max":899,"o":"m 821 135 q 799 97 821 135 q 697 20 778 60 q 499 -19 617 -19 q 302 19 382 -19 q 180 134 222 58 q 120 299 138 210 q 103 494 103 388 q 113 674 103 600 q 149 818 122 749 q 219 933 176 888 q 500 1033 315 1033 q 821 878 733 1033 q 881 714 864 803 q 899 506 899 625 q 881 299 899 388 q 821 135 864 210 m 508 81 q 637 113 581 81 q 722 206 693 146 q 764 340 751 267 q 776 507 776 413 q 764 674 776 601 q 722 808 751 747 q 500 933 661 933 q 306 851 371 933 q 225 507 225 750 q 306 163 225 264 q 508 81 371 81 z "},"P":{"ha":818,"x_min":147,"x_max":760,"o":"m 446 376 l 269 376 l 269 0 l 147 0 l 147 1014 l 446 1014 q 760 695 760 1014 q 446 376 760 376 m 269 474 l 439 474 q 638 695 638 474 q 439 917 638 917 l 269 917 l 269 474 z "},"Q":{"ha":988,"x_min":103,"x_max":885,"o":"m 103 507 q 219 942 103 831 q 493 1033 313 1033 q 808 892 724 1033 q 867 728 850 819 q 885 507 885 638 q 831 163 885 288 q 638 -1 776 38 l 858 -100 l 808 -193 l 454 -18 q 178 122 253 -7 q 103 507 103 250 m 225 507 q 225 399 225 507 q 282 186 225 292 q 492 81 339 81 q 704 187 646 81 q 763 507 763 293 q 704 827 763 721 q 492 933 646 933 q 282 828 339 933 q 225 507 225 722 z "},"R":{"ha":889,"x_min":147,"x_max":807,"o":"m 147 1014 l 454 1014 q 609 988 544 1014 q 706 915 674 961 q 765 715 765 829 q 590 438 765 497 q 657 346 628 410 l 807 0 l 676 0 l 536 329 q 481 397 514 379 q 388 418 447 415 l 269 418 l 269 0 l 147 0 l 147 1014 m 269 515 l 449 515 q 597 573 550 515 q 643 716 643 631 q 597 859 643 801 q 449 917 550 917 l 269 917 l 269 515 z "},"S":{"ha":831,"x_min":78,"x_max":753,"o":"m 485 550 q 692 449 632 508 q 753 265 753 389 q 666 60 753 140 q 415 -19 579 -19 q 174 49 250 -19 q 78 244 97 117 l 178 263 q 404 79 204 79 q 631 258 631 79 q 589 374 631 336 q 450 438 547 411 l 358 464 q 157 563 215 503 q 99 748 99 624 q 182 953 99 872 q 424 1033 265 1033 q 656 965 583 1033 q 747 769 728 897 l 647 751 q 436 935 621 935 q 221 756 221 935 q 259 640 221 678 q 389 576 297 601 l 485 550 z "},"T":{"ha":686,"x_min":10,"x_max":676,"o":"m 10 917 l 10 1014 l 676 1014 l 676 917 l 404 917 l 404 0 l 282 0 l 282 917 l 10 917 z "},"U":{"ha":968,"x_min":126,"x_max":842,"o":"m 719 1014 l 842 1014 l 842 335 q 819 175 842 242 q 765 72 797 108 q 681 13 732 35 q 585 -14 629 -8 q 483 -19 542 -19 q 381 -14 425 -19 q 287 13 338 -8 q 203 72 236 35 q 149 175 171 108 q 126 335 126 242 l 126 1014 l 249 1014 l 249 339 q 325 125 249 178 q 399 92 363 100 q 484 83 435 83 q 569 92 533 83 q 643 125 606 100 q 719 339 719 176 l 719 1014 z "},"V":{"ha":850,"x_min":35,"x_max":815,"o":"m 507 0 l 344 0 l 35 1014 l 160 1014 l 425 115 l 692 1014 l 815 1014 l 507 0 z "},"W":{"ha":1210,"x_min":39,"x_max":1171,"o":"m 438 0 l 260 0 l 39 1014 l 164 1014 l 351 114 l 544 1014 l 665 1014 l 857 114 l 1046 1014 l 1171 1014 l 950 0 l 772 0 l 604 772 l 438 0 z "},"X":{"ha":874,"x_min":38,"x_max":844,"o":"m 56 1014 l 194 1014 l 446 621 l 685 1014 l 818 1014 l 511 519 l 844 0 l 706 0 l 431 428 l 172 0 l 38 0 l 365 531 l 56 1014 z "},"Y":{"ha":764,"x_min":8,"x_max":756,"o":"m 443 0 l 321 0 l 321 353 l 8 1014 l 133 1014 l 382 472 l 631 1014 l 756 1014 l 443 353 l 443 0 z "},"Z":{"ha":763,"x_min":39,"x_max":724,"o":"m 710 1014 l 710 936 l 188 97 l 724 97 l 724 0 l 39 0 l 39 78 l 561 917 l 65 917 l 67 1014 l 710 1014 z "},"[":{"ha":410,"x_min":108,"x_max":401,"o":"m 108 -92 l 108 1021 l 401 1021 l 401 933 l 232 933 l 232 -4 l 401 -4 l 401 -92 l 108 -92 z "},"\\":{"ha":444,"x_min":-3,"x_max":447,"o":"m 118 1076 l 447 -147 l 326 -147 l -3 1076 l 118 1076 z "},"]":{"ha":410,"x_min":8,"x_max":301,"o":"m 301 1021 l 301 -92 l 8 -92 l 8 -4 l 178 -4 l 178 933 l 8 933 l 8 1021 l 301 1021 z "},"^":{"ha":806,"x_min":136,"x_max":669,"o":"m 343 858 l 463 858 l 669 439 l 565 439 l 403 779 l 240 439 l 136 439 l 343 858 z "},"_":{"ha":800,"x_min":94,"x_max":706,"o":"m 94 -94 l 94 0 l 706 0 l 706 -94 l 94 -94 z "},"`":{"ha":431,"x_min":58,"x_max":367,"o":"m 367 932 l 313 868 l 58 1060 l 133 1149 l 367 932 z "},"a":{"ha":814,"x_min":74,"x_max":681,"o":"m 597 761 q 681 536 681 701 l 681 0 l 601 0 l 571 124 q 278 -19 438 -19 q 123 36 172 -19 q 74 186 74 92 q 133 339 74 281 q 354 424 192 397 l 561 457 l 561 536 q 517 678 561 639 q 397 717 474 717 q 215 568 244 717 l 118 597 q 211 757 140 700 q 403 814 282 814 q 597 761 525 814 m 311 72 q 561 207 436 72 l 561 374 l 365 340 q 229 284 267 322 q 192 191 192 246 q 221 104 192 136 q 311 72 250 72 z "},"b":{"ha":871,"x_min":147,"x_max":796,"o":"m 496 -19 q 244 65 365 -19 l 218 0 l 147 0 l 147 1053 l 267 1067 l 267 749 q 496 814 386 814 q 796 397 796 814 q 496 -19 796 -19 m 474 717 q 267 657 367 717 l 267 143 q 463 78 363 78 q 676 397 676 78 q 659 553 676 485 q 594 669 642 621 q 474 717 547 717 z "},"c":{"ha":764,"x_min":75,"x_max":703,"o":"m 194 397 q 203 276 194 329 q 233 176 211 224 q 407 78 279 78 q 556 119 511 78 q 606 240 601 160 l 703 236 q 625 47 693 113 q 403 -19 557 -19 q 114 158 185 -19 q 75 371 75 256 q 89 555 75 486 q 138 686 103 624 q 403 814 210 814 q 625 751 557 814 q 701 568 693 688 l 606 554 q 556 676 601 635 q 407 717 511 717 q 233 618 279 717 q 194 397 194 536 z "},"d":{"ha":871,"x_min":75,"x_max":724,"o":"m 331 -19 q 75 397 75 -19 q 385 814 75 814 q 604 760 492 814 l 604 1053 l 724 1067 l 724 0 l 644 0 l 610 121 q 331 -19 483 -19 m 369 78 q 604 211 494 78 l 604 665 q 408 719 504 719 q 243 635 292 719 q 194 397 194 550 q 369 78 194 78 z "},"e":{"ha":803,"x_min":75,"x_max":735,"o":"m 413 -19 q 153 84 231 -19 q 75 397 75 188 q 407 814 75 814 q 735 414 735 814 l 735 385 l 193 385 q 243 149 194 221 q 413 78 292 78 q 624 238 610 78 l 722 232 q 413 -19 696 -19 m 615 474 q 563 653 608 590 q 408 717 517 717 q 253 652 300 717 q 196 474 206 588 l 615 474 z "},"f":{"ha":469,"x_min":78,"x_max":536,"o":"m 397 982 q 289 856 289 982 l 289 794 l 472 794 l 472 713 l 289 713 l 289 0 l 169 0 l 169 713 l 78 713 l 78 794 l 169 794 l 169 856 q 389 1076 169 1076 q 536 1053 471 1076 l 506 963 q 397 982 458 982 z "},"g":{"ha":794,"x_min":47,"x_max":749,"o":"m 633 342 q 542 275 603 300 q 399 250 482 250 q 251 275 315 250 l 189 214 q 157 144 157 183 q 221 93 157 93 l 532 93 q 691 40 633 93 q 749 -92 749 -14 q 718 -217 749 -171 q 631 -286 688 -264 q 375 -324 532 -324 q 133 -283 218 -324 q 47 -145 47 -242 q 131 11 47 -49 q 51 131 51 42 q 110 256 51 197 l 176 322 q 103 532 103 394 q 160 722 103 643 q 251 789 190 764 q 391 814 311 814 q 526 794 471 814 l 736 794 l 736 715 l 638 715 q 690 532 690 643 q 633 342 690 421 m 397 728 q 307 728 397 728 q 218 532 218 728 q 397 336 218 336 q 575 532 575 336 q 397 728 575 728 m 160 -115 q 160 -149 160 -115 q 217 -206 160 -183 q 394 -228 274 -228 q 570 -203 514 -228 q 626 -101 626 -179 q 587 -24 626 -47 q 494 0 547 0 l 217 0 q 160 -115 160 -46 z "},"h":{"ha":908,"x_min":147,"x_max":775,"o":"m 267 721 q 531 814 399 814 q 719 752 664 814 q 775 564 775 690 l 775 0 l 656 0 l 656 561 q 624 681 656 644 q 517 717 592 717 q 267 624 388 717 l 267 0 l 147 0 l 147 1053 l 267 1067 l 267 721 z "},"i":{"ha":414,"x_min":136,"x_max":281,"o":"m 147 794 l 267 794 l 267 0 l 147 0 l 147 794 m 207 928 q 136 1005 136 928 q 207 1082 136 1082 q 281 1005 281 1082 q 207 928 281 928 z "},"j":{"ha":414,"x_min":-99,"x_max":281,"o":"m 39 -219 q 147 -93 147 -219 l 147 794 l 267 794 l 267 -93 q 47 -314 267 -314 q -99 -289 -35 -314 l -68 -199 q 39 -219 -19 -219 m 207 928 q 136 1005 136 928 q 207 1082 136 1082 q 281 1005 281 1082 q 207 928 281 928 z "},"k":{"ha":754,"x_min":147,"x_max":757,"o":"m 267 0 l 147 0 l 147 1053 l 267 1067 l 267 474 l 376 474 l 600 794 l 732 794 l 467 419 l 757 0 l 625 0 l 360 385 l 267 385 l 267 0 z "},"l":{"ha":414,"x_min":147,"x_max":267,"o":"m 267 0 l 147 0 l 147 1053 l 267 1069 l 267 0 z "},"m":{"ha":1369,"x_min":147,"x_max":1236,"o":"m 507 814 q 724 704 668 814 q 847 782 775 750 q 994 814 918 814 q 1236 565 1236 814 l 1236 0 l 1117 0 l 1117 558 q 1083 676 1117 636 q 975 717 1050 717 q 747 622 851 717 q 751 565 751 594 l 751 0 l 632 0 l 632 558 q 599 676 632 636 q 489 717 565 717 q 267 629 368 717 l 267 0 l 147 0 l 147 794 l 221 794 l 251 715 q 507 814 368 814 z "},"n":{"ha":908,"x_min":147,"x_max":775,"o":"m 251 711 q 528 814 392 814 q 719 752 664 814 q 775 564 775 690 l 775 0 l 656 0 l 656 561 q 624 681 656 644 q 517 717 592 717 q 267 624 388 717 l 267 0 l 147 0 l 147 794 l 218 794 l 251 711 z "},"o":{"ha":839,"x_min":75,"x_max":764,"o":"m 303 103 q 327 91 303 103 q 419 78 350 78 q 535 103 489 78 q 604 177 582 129 q 635 277 626 225 q 644 397 644 329 q 635 517 644 465 q 604 617 626 569 q 535 691 582 665 q 419 717 489 717 q 303 691 350 717 q 234 617 257 665 q 203 518 211 569 q 194 397 194 467 q 203 276 194 328 q 234 177 211 225 q 303 103 257 129 m 764 397 q 764 189 764 397 q 419 -19 764 -19 q 75 397 75 -19 q 419 814 75 814 q 764 397 764 814 z "},"p":{"ha":871,"x_min":147,"x_max":796,"o":"m 496 814 q 796 397 796 814 q 485 -19 796 -19 q 267 24 383 -19 l 267 -308 l 147 -325 l 147 794 l 218 794 l 246 725 q 496 814 367 814 m 676 397 q 628 626 676 535 q 472 717 581 717 q 267 646 364 717 l 267 114 q 463 78 353 78 q 676 397 676 78 z "},"q":{"ha":871,"x_min":75,"x_max":724,"o":"m 385 814 q 628 736 521 814 l 651 794 l 724 794 l 724 -308 l 604 -325 l 604 32 q 385 -19 489 -19 q 75 397 75 -19 q 385 814 75 814 m 408 78 q 604 124 511 78 l 604 657 q 408 717 522 717 q 194 397 194 717 q 408 78 194 78 z "},"r":{"ha":557,"x_min":147,"x_max":546,"o":"m 267 0 l 147 0 l 147 794 l 218 794 l 261 653 q 546 814 358 807 l 546 704 q 267 546 358 697 l 267 0 z "},"s":{"ha":739,"x_min":72,"x_max":667,"o":"m 435 443 q 613 362 560 413 q 667 210 667 311 q 592 47 667 110 q 369 -15 517 -15 q 156 41 222 -15 q 72 204 90 97 l 169 219 q 360 79 190 79 q 547 206 547 79 q 513 288 547 261 q 392 336 479 314 l 313 356 q 141 436 192 386 q 90 588 90 486 q 163 752 90 690 q 376 814 235 814 q 580 758 517 814 q 661 594 643 701 l 563 579 q 385 719 544 719 q 210 593 210 719 q 242 510 210 538 q 354 463 274 483 l 435 443 z "},"t":{"ha":479,"x_min":29,"x_max":453,"o":"m 29 713 l 29 794 l 165 794 l 165 939 l 285 986 l 285 794 l 453 794 l 453 713 l 285 713 l 285 186 q 302 98 285 124 q 353 72 319 72 q 435 83 386 72 l 449 3 q 322 -19 374 -19 q 236 -3 269 -19 q 189 47 203 14 q 165 182 165 97 l 165 713 l 29 713 z "},"u":{"ha":917,"x_min":133,"x_max":769,"o":"m 368 -19 q 189 42 244 -19 q 133 228 133 104 l 133 794 l 253 794 l 253 236 q 288 116 253 154 q 399 78 324 78 q 650 215 533 78 l 650 794 l 769 794 l 769 0 l 690 0 l 653 118 q 368 -19 524 -19 z "},"v":{"ha":739,"x_min":22,"x_max":717,"o":"m 435 0 l 304 0 l 22 794 l 143 794 l 369 139 l 596 794 l 717 794 l 435 0 z "},"w":{"ha":1035,"x_min":29,"x_max":1006,"o":"m 356 0 l 232 0 l 29 794 l 150 794 l 303 153 l 465 725 l 568 725 l 732 153 l 885 794 l 1006 794 l 803 0 l 681 0 l 517 556 l 356 0 z "},"x":{"ha":701,"x_min":11,"x_max":690,"o":"m 138 0 l 11 0 l 283 408 l 25 794 l 158 794 l 356 499 l 550 794 l 676 794 l 419 404 l 690 0 l 557 0 l 346 315 l 138 0 z "},"y":{"ha":754,"x_min":22,"x_max":731,"o":"m 308 -340 l 200 -321 l 322 -6 l 22 794 l 146 794 l 381 151 l 608 794 l 731 794 l 308 -340 z "},"z":{"ha":722,"x_min":58,"x_max":664,"o":"m 75 703 l 75 794 l 646 794 l 646 714 l 204 92 l 664 92 l 664 0 l 58 0 l 58 81 l 503 703 l 75 703 z "},"{":{"ha":421,"x_min":26,"x_max":413,"o":"m 242 725 l 253 561 q 233 496 253 521 q 185 471 213 471 l 185 463 q 233 438 213 463 q 253 374 253 414 l 242 207 q 280 58 242 111 q 413 6 318 6 l 413 -92 q 117 190 117 -92 l 128 358 q 96 410 128 394 q 26 425 64 425 l 26 506 q 96 521 64 506 q 128 572 128 536 q 117 740 128 572 q 413 1022 117 1022 l 413 925 q 280 873 318 925 q 242 725 242 821 z "},"|":{"ha":451,"x_min":158,"x_max":293,"o":"m 158 -147 l 158 1076 l 293 1076 l 293 -147 l 158 -147 z "},"}":{"ha":421,"x_min":8,"x_max":394,"o":"m 179 208 l 168 375 q 188 440 168 415 q 236 465 208 465 l 236 474 q 188 498 208 474 q 168 564 168 522 l 179 731 q 141 874 179 824 q 8 925 103 925 l 8 1022 q 304 740 304 1022 l 293 572 q 325 521 293 536 q 394 506 357 506 l 394 425 q 325 410 357 425 q 293 358 293 394 q 304 190 293 358 q 8 -92 304 -92 l 8 6 q 141 58 103 6 q 179 208 179 111 z "},"~":{"ha":806,"x_min":128,"x_max":678,"o":"m 128 489 q 235 456 175 456 q 402 485 296 456 q 567 515 508 515 q 678 489 626 515 l 678 394 q 567 424 625 424 q 402 394 508 424 q 238 364 296 364 q 128 394 179 364 l 128 489 z "}," ":{"ha":403,"x_min":0,"x_max":0,"o":""},"¡":{"ha":433,"x_min":142,"x_max":292,"o":"m 145 770 q 147 778 145 770 q 167 800 149 786 q 224 814 185 814 q 278 791 264 814 q 292 736 292 768 q 288 688 292 704 q 267 658 285 672 q 210 643 250 643 q 156 666 169 643 q 142 722 142 689 q 145 770 142 754 m 285 -211 l 150 -211 l 150 17 l 181 538 l 254 538 l 285 17 l 285 -211 z "},"¢":{"ha":876,"x_min":121,"x_max":796,"o":"m 518 -112 l 435 -112 l 435 54 q 298 86 356 58 q 207 154 240 114 q 153 256 174 194 q 121 507 121 353 q 146 735 121 658 q 204 853 171 813 q 296 922 238 893 q 435 958 354 951 l 435 1125 l 518 1125 l 518 960 q 715 876 654 953 q 785 671 775 799 l 689 665 q 493 863 679 863 q 376 842 425 863 q 302 792 328 822 q 262 712 276 763 q 244 617 247 661 q 240 508 240 574 q 244 397 240 443 q 263 302 249 351 q 300 222 276 253 q 476 151 357 151 q 647 196 596 151 q 700 328 697 240 l 796 322 q 724 132 786 200 q 518 54 663 64 l 518 -112 z "},"£":{"ha":875,"x_min":94,"x_max":806,"o":"m 94 436 l 94 521 l 193 521 l 193 736 q 260 958 193 883 q 485 1033 326 1033 q 713 961 644 1033 q 782 736 782 889 l 676 729 q 632 885 676 836 q 488 935 588 935 q 352 886 389 935 q 315 736 315 838 l 315 521 l 665 521 l 665 436 l 315 436 l 315 269 q 301 166 315 203 q 247 99 286 129 l 806 99 l 806 0 l 118 0 l 118 90 q 193 253 193 154 l 193 436 l 94 436 z "},"¤":{"ha":875,"x_min":78,"x_max":797,"o":"m 261 742 q 445 799 336 799 q 621 750 554 799 l 739 867 l 797 808 l 679 690 q 729 508 729 617 q 678 325 729 399 l 797 206 l 739 147 l 618 265 q 437 215 546 215 q 258 269 328 215 l 136 147 l 78 206 l 203 332 q 160 507 160 403 q 204 681 160 611 l 78 808 l 136 867 l 261 742 m 267 507 q 267 467 267 507 q 306 372 267 426 q 440 317 346 317 q 578 372 535 317 q 622 507 622 426 q 582 642 622 588 q 447 697 542 697 q 310 642 353 697 q 267 507 267 588 z "},"¥":{"ha":875,"x_min":68,"x_max":807,"o":"m 113 538 l 113 621 l 272 621 l 68 1014 l 196 1014 l 438 531 l 681 1014 l 807 1014 l 603 621 l 765 621 l 765 538 l 560 538 l 499 419 l 765 419 l 765 335 l 497 335 l 497 0 l 378 0 l 378 335 l 113 335 l 113 419 l 376 419 l 315 538 l 113 538 z "},"¦":{"ha":451,"x_min":158,"x_max":293,"o":"m 158 610 l 158 1076 l 293 1076 l 293 610 l 158 610 m 158 -147 l 158 319 l 293 319 l 293 -147 l 158 -147 z "},"§":{"ha":682,"x_min":50,"x_max":632,"o":"m 632 283 q 451 44 632 113 q 532 -153 532 -58 q 457 -319 532 -249 q 264 -418 382 -389 l 239 -326 q 360 -269 308 -308 q 411 -178 411 -229 q 394 -92 411 -126 q 336 -8 378 -58 l 151 213 q 50 433 50 332 q 231 674 50 604 q 150 873 150 779 q 224 1036 150 967 q 418 1136 299 1106 l 443 1043 q 322 985 374 1025 q 271 895 271 946 q 287 810 271 844 q 343 729 303 776 l 531 506 q 632 283 632 386 m 511 260 q 495 343 511 308 q 436 428 479 378 l 294 597 q 171 458 171 551 q 186 375 171 408 q 243 293 201 342 l 388 121 q 511 260 511 165 z "},"¨":{"ha":450,"x_min":8,"x_max":442,"o":"m 144 967 q 143 960 144 967 q 125 940 142 953 q 77 926 108 926 q 30 940 46 926 q 11 967 14 953 q 8 1004 8 981 q 11 1042 8 1028 q 30 1070 14 1057 q 84 1083 46 1083 q 135 1063 122 1083 q 147 1011 147 1042 q 144 967 147 981 m 439 967 q 438 960 439 967 q 419 940 436 953 q 372 926 403 926 q 324 940 340 926 q 306 967 308 953 q 303 1004 303 981 q 306 1042 303 1028 q 324 1070 308 1057 q 378 1083 340 1083 q 429 1063 417 1083 q 442 1011 442 1042 q 439 967 442 981 z "},"©":{"ha":1013,"x_min":90,"x_max":922,"o":"m 503 1004 q 398 948 429 1004 q 367 778 367 892 q 396 609 367 664 q 504 554 425 554 q 588 588 560 554 q 619 678 617 621 l 686 675 q 503 489 675 489 q 334 561 382 489 q 286 778 286 633 q 335 996 286 924 q 501 1068 385 1068 q 685 906 669 1068 l 617 901 q 503 1004 606 1004 m 197 469 q 143 522 197 469 q 90 778 90 575 q 197 1088 90 981 q 506 1194 304 1194 q 815 1088 708 1194 q 922 778 922 981 q 815 469 922 576 q 506 363 708 363 q 197 469 303 363 m 506 1126 q 336 1126 506 1126 q 165 778 165 1126 q 506 431 165 431 q 847 778 847 431 q 506 1126 847 1126 z "},"ª":{"ha":601,"x_min":50,"x_max":517,"o":"m 297 1056 q 447 1013 392 1056 q 501 861 501 971 l 501 486 l 431 486 l 401 563 q 208 472 314 472 q 97 513 133 472 q 61 621 61 553 q 104 731 61 689 q 264 790 147 772 l 393 811 l 393 861 q 294 971 393 971 q 179 876 196 971 l 94 903 q 297 1056 128 1056 m 168 624 q 242 553 168 553 q 393 632 317 553 l 393 740 l 279 721 q 191 685 214 710 q 168 624 168 660 m 50 317 l 50 388 l 517 388 l 517 317 l 50 317 z "},"«":{"ha":728,"x_min":39,"x_max":653,"o":"m 349 653 l 179 438 l 349 222 l 276 151 l 39 413 l 39 463 l 276 724 l 349 653 m 653 653 l 483 438 l 653 222 l 581 151 l 343 413 l 343 463 l 581 724 l 653 653 z "},"¬":{"ha":806,"x_min":128,"x_max":678,"o":"m 128 394 l 128 489 l 678 489 l 678 203 l 589 203 l 589 394 l 128 394 z "},"®":{"ha":1013,"x_min":90,"x_max":922,"o":"m 197 469 q 143 522 197 469 q 90 778 90 575 q 197 1088 90 981 q 506 1194 304 1194 q 815 1088 708 1194 q 922 778 922 981 q 815 469 922 576 q 506 363 708 363 q 197 469 303 363 m 506 1126 q 336 1126 506 1126 q 165 778 165 1126 q 506 431 165 431 q 847 778 847 431 q 506 1126 847 1126 m 340 1058 l 514 1058 q 661 1000 625 1058 q 689 893 689 956 q 596 738 689 764 q 629 689 615 719 l 713 500 l 626 500 l 549 681 q 479 726 531 726 l 421 726 l 421 500 l 340 500 l 340 1058 m 421 789 l 513 789 q 608 892 608 789 q 513 994 608 994 l 421 994 l 421 789 z "},"¯":{"ha":492,"x_min":67,"x_max":425,"o":"m 67 956 l 67 1057 l 425 1057 l 425 956 l 67 956 z "},"°":{"ha":585,"x_min":58,"x_max":526,"o":"m 220 569 q 234 563 220 569 q 292 557 247 557 q 363 569 336 557 q 402 610 390 582 q 417 662 414 638 q 419 729 419 686 q 417 797 419 772 q 402 849 414 821 q 363 889 390 876 q 292 901 336 901 q 220 889 247 901 q 181 849 193 876 q 167 797 169 821 q 164 729 164 772 q 167 662 164 686 q 181 610 169 638 q 220 569 193 582 m 397 487 q 375 480 397 487 q 292 472 353 472 q 187 487 231 472 q 119 524 143 501 q 81 582 94 546 q 58 714 58 640 q 66 827 58 788 q 96 906 74 867 q 292 986 140 986 q 489 906 444 986 q 519 827 511 867 q 526 735 526 788 q 522 651 526 683 q 504 582 518 618 q 466 524 490 546 q 397 487 442 501 z "},"±":{"ha":806,"x_min":128,"x_max":678,"o":"m 128 464 l 128 558 l 356 558 l 356 786 l 450 786 l 450 558 l 678 558 l 678 464 l 450 464 l 450 236 l 356 236 l 356 464 l 128 464 m 128 0 l 128 94 l 678 94 l 678 0 l 128 0 z "},"²":{"ha":543,"x_min":74,"x_max":464,"o":"m 272 1047 q 408 1004 361 1047 q 454 888 454 961 q 364 714 454 814 l 218 557 l 464 557 l 464 472 l 74 472 l 74 538 l 278 758 q 349 888 349 836 q 327 942 349 921 q 264 963 306 963 q 174 885 182 963 l 81 894 q 272 1047 96 1047 z "},"³":{"ha":543,"x_min":74,"x_max":472,"o":"m 165 626 q 269 542 172 542 q 365 624 365 542 q 338 692 365 665 q 257 718 311 718 l 226 718 l 226 783 l 258 783 q 334 810 308 783 q 360 878 360 838 q 271 964 360 964 q 207 942 232 964 q 178 883 182 921 l 85 896 q 274 1047 94 1047 q 416 1001 367 1047 q 465 874 465 956 q 374 753 465 792 q 472 618 472 719 q 417 505 472 549 q 272 461 363 461 q 74 614 88 461 l 165 626 z "},"´":{"ha":431,"x_min":64,"x_max":372,"o":"m 118 868 l 64 932 l 297 1149 l 372 1060 l 118 868 z "},"µ":{"ha":885,"x_min":158,"x_max":803,"o":"m 278 -315 l 158 -315 l 158 794 l 278 794 l 278 181 q 533 78 399 78 q 650 115 617 78 q 683 236 683 151 l 683 794 l 803 794 l 803 228 q 749 41 803 101 q 556 -19 696 -19 q 278 82 417 -19 l 278 -315 z "},"¶":{"ha":688,"x_min":36,"x_max":513,"o":"m 513 0 l 390 0 l 390 390 l 311 390 q 104 467 172 390 q 36 660 36 544 q 104 853 36 776 q 311 931 172 931 l 513 931 l 513 0 z "},"·":{"ha":317,"x_min":83,"x_max":233,"o":"m 230 401 q 228 393 230 401 q 208 371 226 385 q 158 357 190 357 q 108 371 125 357 q 87 401 90 385 q 83 438 83 417 q 85 472 83 460 q 94 500 88 485 q 156 528 106 528 q 219 505 206 528 q 233 449 233 482 q 230 401 233 417 z "},"¸":{"ha":410,"x_min":61,"x_max":349,"o":"m 61 -197 l 153 -197 q 156 -229 153 -218 q 203 -257 163 -257 q 253 -242 243 -257 q 263 -197 263 -228 q 249 -152 263 -167 q 201 -132 236 -137 l 126 -118 l 136 -69 l 194 -69 q 310 -96 272 -69 q 349 -194 349 -122 q 317 -300 349 -265 q 205 -335 286 -335 q 92 -299 124 -335 q 61 -197 61 -264 z "},"¹":{"ha":543,"x_min":119,"x_max":343,"o":"m 119 929 l 119 993 q 257 1035 211 1001 l 343 1035 l 343 472 l 233 472 l 233 929 l 119 929 z "},"º":{"ha":585,"x_min":44,"x_max":540,"o":"m 58 317 l 58 388 l 525 388 l 525 317 l 58 317 m 154 764 q 154 715 154 764 q 183 612 154 665 q 292 558 211 558 q 402 612 374 558 q 431 764 431 665 q 402 917 431 863 q 292 971 374 971 q 183 917 211 971 q 154 764 154 863 m 292 1056 q 416 1056 292 1056 q 540 764 540 1056 q 292 472 540 472 q 44 764 44 472 q 292 1056 44 1056 z "},"»":{"ha":728,"x_min":42,"x_max":656,"o":"m 346 222 l 515 438 l 346 653 l 418 724 l 656 463 l 656 413 l 418 151 l 346 222 m 42 222 l 211 438 l 42 653 l 114 724 l 351 463 l 351 413 l 114 151 l 42 222 z "},"¼":{"ha":1361,"x_min":129,"x_max":1246,"o":"m 1186 0 l 1086 0 l 1086 110 l 811 110 l 811 188 l 1026 563 l 1186 563 l 1186 193 l 1246 193 l 1246 110 l 1186 110 l 1186 0 m 1086 193 l 1086 492 l 917 193 l 1086 193 m 129 910 l 129 974 q 267 1015 221 982 l 353 1015 l 353 453 l 243 453 l 243 910 l 129 910 m 474 -50 l 771 1063 l 856 1063 l 557 -50 l 474 -50 z "},"½":{"ha":1361,"x_min":129,"x_max":1239,"o":"m 463 -50 l 760 1063 l 844 1063 l 546 -50 l 463 -50 m 1047 575 q 1183 532 1136 575 q 1229 415 1229 489 q 1139 242 1229 342 l 993 85 l 1239 85 l 1239 0 l 849 0 l 849 65 l 1053 286 q 1124 415 1124 364 q 1102 469 1124 449 q 1039 490 1081 490 q 949 413 957 490 l 856 422 q 1047 575 871 575 m 129 910 l 129 974 q 267 1015 221 982 l 353 1015 l 353 453 l 243 453 l 243 910 l 129 910 z "},"¾":{"ha":1361,"x_min":83,"x_max":1246,"o":"m 1186 0 l 1086 0 l 1086 110 l 811 110 l 811 188 l 1026 563 l 1186 563 l 1186 193 l 1246 193 l 1246 110 l 1186 110 l 1186 0 m 1086 193 l 1086 492 l 917 193 l 1086 193 m 175 607 q 278 522 182 522 q 375 604 375 522 q 348 672 375 646 q 267 699 321 699 l 236 699 l 236 764 l 268 764 q 344 791 318 764 q 369 858 369 818 q 281 944 369 944 q 217 923 242 944 q 188 864 192 901 l 94 876 q 283 1028 104 1028 q 426 982 376 1028 q 475 854 475 936 q 383 733 475 772 q 482 599 482 700 q 427 485 482 529 q 282 442 372 442 q 83 594 97 442 l 175 607 m 501 -50 l 799 1063 l 883 1063 l 585 -50 l 501 -50 z "},"¿":{"ha":667,"x_min":50,"x_max":631,"o":"m 303 770 q 305 778 303 770 q 325 800 307 786 q 376 814 343 814 q 426 800 408 814 q 447 770 443 786 q 450 733 450 754 q 448 699 450 711 q 439 672 446 686 q 378 643 428 643 q 315 667 329 643 q 300 722 300 690 q 303 770 300 754 m 631 -18 q 543 -174 614 -117 q 340 -231 472 -231 q 128 -145 207 -231 q 50 60 50 -60 q 322 368 50 274 l 338 538 l 414 538 l 425 326 q 228 219 290 282 q 167 69 167 156 q 214 -78 167 -18 q 353 -137 261 -137 q 528 -4 501 -137 l 631 -18 z "},"À":{"ha":872,"x_min":24,"x_max":849,"o":"m 354 1014 l 517 1014 l 849 0 l 728 0 l 629 306 l 243 306 l 144 0 l 24 0 l 354 1014 m 436 906 l 274 403 l 597 403 l 436 906 m 590 1151 l 536 1088 l 282 1279 l 357 1368 l 590 1151 z "},"Á":{"ha":872,"x_min":24,"x_max":849,"o":"m 354 1014 l 517 1014 l 849 0 l 728 0 l 629 306 l 243 306 l 144 0 l 24 0 l 354 1014 m 436 906 l 274 403 l 597 403 l 436 906 m 342 1088 l 288 1151 l 521 1368 l 596 1279 l 342 1088 z "},"Â":{"ha":872,"x_min":24,"x_max":849,"o":"m 354 1014 l 517 1014 l 849 0 l 728 0 l 629 306 l 243 306 l 144 0 l 24 0 l 354 1014 m 436 906 l 274 403 l 597 403 l 436 906 m 278 1097 l 228 1147 l 414 1360 l 465 1360 l 651 1147 l 601 1097 l 439 1231 l 278 1097 z "},"Ã":{"ha":872,"x_min":24,"x_max":849,"o":"m 354 1014 l 517 1014 l 849 0 l 728 0 l 629 306 l 243 306 l 144 0 l 24 0 l 354 1014 m 436 906 l 274 403 l 597 403 l 436 906 m 668 1292 q 544 1154 631 1154 q 438 1179 506 1154 q 349 1204 371 1204 q 314 1190 328 1204 q 289 1143 300 1175 l 210 1168 q 262 1274 231 1243 q 333 1306 293 1306 q 440 1281 372 1306 q 530 1256 508 1256 q 565 1269 551 1256 q 590 1317 579 1283 l 668 1292 z "},"Ä":{"ha":872,"x_min":24,"x_max":849,"o":"m 354 1014 l 517 1014 l 849 0 l 728 0 l 629 306 l 243 306 l 144 0 l 24 0 l 354 1014 m 436 906 l 274 403 l 597 403 l 436 906 m 358 1186 q 357 1179 358 1186 q 339 1159 356 1172 q 291 1146 322 1146 q 244 1159 260 1146 q 225 1186 228 1172 q 222 1224 222 1200 q 225 1262 222 1247 q 244 1290 228 1276 q 298 1303 260 1303 q 349 1282 336 1303 q 361 1231 361 1261 q 358 1186 361 1200 m 653 1186 q 651 1179 653 1186 q 633 1159 650 1172 q 585 1146 617 1146 q 538 1159 554 1146 q 519 1186 522 1172 q 517 1224 517 1200 q 519 1262 517 1247 q 538 1290 522 1276 q 592 1303 554 1303 q 643 1282 631 1303 q 656 1231 656 1261 q 653 1186 656 1200 z "},"Å":{"ha":872,"x_min":24,"x_max":849,"o":"m 354 1014 l 517 1014 l 849 0 l 728 0 l 629 306 l 243 306 l 144 0 l 24 0 l 354 1014 m 436 906 l 274 403 l 597 403 l 436 906 m 438 1147 q 503 1226 503 1147 q 438 1306 503 1306 q 376 1226 376 1306 q 438 1147 376 1147 m 438 1082 q 296 1226 296 1082 q 306 1292 296 1263 q 349 1347 315 1322 q 438 1372 382 1372 q 582 1227 582 1372 q 438 1082 582 1082 z "},"Æ":{"ha":1265,"x_min":40,"x_max":1201,"o":"m 1174 1014 l 1174 917 l 757 917 l 757 536 l 1144 536 l 1144 439 l 757 439 l 757 97 l 1201 97 l 1201 0 l 635 0 l 635 439 l 346 439 l 161 0 l 40 0 l 472 1014 l 1174 1014 m 635 915 l 547 915 l 388 536 l 635 536 l 635 915 z "},"Ç":{"ha":886,"x_min":103,"x_max":814,"o":"m 493 933 q 300 861 364 933 q 231 656 243 799 q 225 508 225 596 q 231 359 225 421 q 253 242 236 297 q 300 153 271 186 q 493 81 364 81 q 714 308 707 81 l 814 303 q 730 65 804 149 q 493 -19 656 -19 q 181 122 264 -19 q 120 285 138 193 q 103 508 103 376 q 120 731 103 639 q 181 893 138 822 q 493 1033 264 1033 q 718 965 644 1033 q 808 768 792 896 l 710 750 q 493 933 681 933 m 303 -197 l 394 -197 q 397 -229 394 -218 q 444 -257 404 -257 q 494 -242 485 -257 q 504 -197 504 -228 q 491 -152 504 -167 q 443 -132 478 -137 l 368 -118 l 378 -69 l 436 -69 q 552 -96 514 -69 q 590 -194 590 -122 q 559 -300 590 -265 q 447 -335 528 -335 q 334 -299 365 -335 q 303 -197 303 -264 z "},"È":{"ha":778,"x_min":147,"x_max":714,"o":"m 147 1014 l 686 1014 l 686 917 l 269 917 l 269 564 l 657 564 l 657 467 l 269 467 l 269 97 l 714 97 l 714 0 l 147 0 l 147 1014 m 554 1151 l 500 1088 l 246 1279 l 321 1368 l 554 1151 z "},"É":{"ha":778,"x_min":147,"x_max":714,"o":"m 147 1014 l 686 1014 l 686 917 l 269 917 l 269 564 l 657 564 l 657 467 l 269 467 l 269 97 l 714 97 l 714 0 l 147 0 l 147 1014 m 350 1088 l 296 1151 l 529 1368 l 604 1279 l 350 1088 z "},"Ê":{"ha":778,"x_min":147,"x_max":714,"o":"m 147 1014 l 686 1014 l 686 917 l 269 917 l 269 564 l 657 564 l 657 467 l 269 467 l 269 97 l 714 97 l 714 0 l 147 0 l 147 1014 m 242 1097 l 192 1147 l 378 1360 l 429 1360 l 615 1147 l 565 1097 l 403 1231 l 242 1097 z "},"Ë":{"ha":778,"x_min":147,"x_max":714,"o":"m 147 1014 l 686 1014 l 686 917 l 269 917 l 269 564 l 657 564 l 657 467 l 269 467 l 269 97 l 714 97 l 714 0 l 147 0 l 147 1014 m 322 1186 q 321 1179 322 1186 q 303 1159 319 1172 q 255 1146 286 1146 q 208 1159 224 1146 q 189 1186 192 1172 q 186 1224 186 1200 q 189 1262 186 1247 q 208 1290 192 1276 q 262 1303 224 1303 q 313 1282 300 1303 q 325 1231 325 1261 q 322 1186 325 1200 m 617 1186 q 615 1179 617 1186 q 597 1159 614 1172 q 549 1146 581 1146 q 502 1159 518 1146 q 483 1186 486 1172 q 481 1224 481 1200 q 483 1262 481 1247 q 502 1290 486 1276 q 556 1303 518 1303 q 607 1282 594 1303 q 619 1231 619 1261 q 617 1186 619 1200 z "},"Ì":{"ha":417,"x_min":51,"x_max":360,"o":"m 147 1014 l 269 1014 l 269 0 l 147 0 l 147 1014 m 360 1151 l 306 1088 l 51 1279 l 126 1368 l 360 1151 z "},"Í":{"ha":417,"x_min":85,"x_max":393,"o":"m 147 1014 l 269 1014 l 269 0 l 147 0 l 147 1014 m 139 1088 l 85 1151 l 318 1368 l 393 1279 l 139 1088 z "},"Î":{"ha":417,"x_min":-3,"x_max":421,"o":"m 147 1014 l 269 1014 l 269 0 l 147 0 l 147 1014 m 47 1097 l -3 1147 l 183 1360 l 235 1360 l 421 1147 l 371 1097 l 208 1231 l 47 1097 z "},"Ï":{"ha":417,"x_min":-8,"x_max":425,"o":"m 147 1014 l 269 1014 l 269 0 l 147 0 l 147 1014 m 128 1186 q 126 1179 128 1186 q 108 1159 125 1172 q 60 1146 92 1146 q 13 1159 29 1146 q -6 1186 -3 1172 q -8 1224 -8 1200 q -6 1262 -8 1247 q 13 1290 -3 1276 q 67 1303 29 1303 q 118 1282 106 1303 q 131 1231 131 1261 q 128 1186 131 1200 m 422 1186 q 421 1179 422 1186 q 403 1159 419 1172 q 355 1146 386 1146 q 308 1159 324 1146 q 289 1186 292 1172 q 286 1224 286 1200 q 289 1262 286 1247 q 308 1290 292 1276 q 362 1303 324 1303 q 413 1282 400 1303 q 425 1231 425 1261 q 422 1186 425 1200 z "},"Ð":{"ha":969,"x_min":81,"x_max":853,"o":"m 81 458 l 81 553 l 147 553 l 147 1014 l 456 1014 q 779 864 694 1014 q 837 707 821 792 q 853 519 853 622 q 844 344 853 415 q 808 206 835 274 q 739 96 782 139 q 456 0 640 0 l 147 0 l 147 458 l 81 458 m 450 917 l 269 917 l 269 553 l 569 553 l 569 458 l 269 458 l 269 97 l 450 97 q 653 175 586 97 q 731 507 731 269 q 653 839 731 744 q 450 917 586 917 z "},"Ñ":{"ha":1033,"x_min":147,"x_max":886,"o":"m 764 1014 l 886 1014 l 886 0 l 753 0 l 269 808 l 269 0 l 147 0 l 147 1014 l 281 1014 l 764 204 l 764 1014 m 754 1292 q 631 1154 717 1154 q 524 1179 592 1154 q 435 1204 457 1204 q 400 1190 414 1204 q 375 1143 386 1175 l 296 1168 q 348 1274 317 1243 q 419 1306 379 1306 q 526 1281 458 1306 q 616 1256 594 1256 q 651 1269 638 1256 q 676 1317 665 1283 l 754 1292 z "},"Ò":{"ha":1001,"x_min":103,"x_max":899,"o":"m 821 135 q 799 97 821 135 q 697 20 778 60 q 499 -19 617 -19 q 302 19 382 -19 q 180 134 222 58 q 120 299 138 210 q 103 494 103 388 q 113 674 103 600 q 149 818 122 749 q 219 933 176 888 q 500 1033 315 1033 q 821 878 733 1033 q 881 714 864 803 q 899 506 899 625 q 881 299 899 388 q 821 135 864 210 m 508 81 q 637 113 581 81 q 722 206 693 146 q 764 340 751 267 q 776 507 776 413 q 764 674 776 601 q 722 808 751 747 q 500 933 661 933 q 306 851 371 933 q 225 507 225 750 q 306 163 225 264 q 508 81 371 81 m 651 1151 l 597 1088 l 343 1279 l 418 1368 l 651 1151 z "},"Ó":{"ha":1001,"x_min":103,"x_max":899,"o":"m 821 135 q 799 97 821 135 q 697 20 778 60 q 499 -19 617 -19 q 302 19 382 -19 q 180 134 222 58 q 120 299 138 210 q 103 494 103 388 q 113 674 103 600 q 149 818 122 749 q 219 933 176 888 q 500 1033 315 1033 q 821 878 733 1033 q 881 714 864 803 q 899 506 899 625 q 881 299 899 388 q 821 135 864 210 m 508 81 q 637 113 581 81 q 722 206 693 146 q 764 340 751 267 q 776 507 776 413 q 764 674 776 601 q 722 808 751 747 q 500 933 661 933 q 306 851 371 933 q 225 507 225 750 q 306 163 225 264 q 508 81 371 81 m 403 1088 l 349 1151 l 582 1368 l 657 1279 l 403 1088 z "},"Ô":{"ha":1001,"x_min":103,"x_max":899,"o":"m 821 135 q 799 97 821 135 q 697 20 778 60 q 499 -19 617 -19 q 302 19 382 -19 q 180 134 222 58 q 120 299 138 210 q 103 494 103 388 q 113 674 103 600 q 149 818 122 749 q 219 933 176 888 q 500 1033 315 1033 q 821 878 733 1033 q 881 714 864 803 q 899 506 899 625 q 881 299 899 388 q 821 135 864 210 m 508 81 q 637 113 581 81 q 722 206 693 146 q 764 340 751 267 q 776 507 776 413 q 764 674 776 601 q 722 808 751 747 q 500 933 661 933 q 306 851 371 933 q 225 507 225 750 q 306 163 225 264 q 508 81 371 81 m 339 1097 l 289 1147 l 475 1360 l 526 1360 l 713 1147 l 663 1097 l 500 1231 l 339 1097 z "},"Õ":{"ha":1001,"x_min":103,"x_max":899,"o":"m 821 135 q 799 97 821 135 q 697 20 778 60 q 499 -19 617 -19 q 302 19 382 -19 q 180 134 222 58 q 120 299 138 210 q 103 494 103 388 q 113 674 103 600 q 149 818 122 749 q 219 933 176 888 q 500 1033 315 1033 q 821 878 733 1033 q 881 714 864 803 q 899 506 899 625 q 881 299 899 388 q 821 135 864 210 m 508 81 q 637 113 581 81 q 722 206 693 146 q 764 340 751 267 q 776 507 776 413 q 764 674 776 601 q 722 808 751 747 q 500 933 661 933 q 306 851 371 933 q 225 507 225 750 q 306 163 225 264 q 508 81 371 81 m 729 1292 q 606 1154 692 1154 q 499 1179 567 1154 q 410 1204 432 1204 q 375 1190 389 1204 q 350 1143 361 1175 l 271 1168 q 323 1274 292 1243 q 394 1306 354 1306 q 501 1281 433 1306 q 591 1256 569 1256 q 626 1269 613 1256 q 651 1317 640 1283 l 729 1292 z "},"Ö":{"ha":1001,"x_min":103,"x_max":899,"o":"m 821 135 q 799 97 821 135 q 697 20 778 60 q 499 -19 617 -19 q 302 19 382 -19 q 180 134 222 58 q 120 299 138 210 q 103 494 103 388 q 113 674 103 600 q 149 818 122 749 q 219 933 176 888 q 500 1033 315 1033 q 821 878 733 1033 q 881 714 864 803 q 899 506 899 625 q 881 299 899 388 q 821 135 864 210 m 508 81 q 637 113 581 81 q 722 206 693 146 q 764 340 751 267 q 776 507 776 413 q 764 674 776 601 q 722 808 751 747 q 500 933 661 933 q 306 851 371 933 q 225 507 225 750 q 306 163 225 264 q 508 81 371 81 m 419 1186 q 418 1179 419 1186 q 400 1159 417 1172 q 352 1146 383 1146 q 305 1159 321 1146 q 286 1186 289 1172 q 283 1224 283 1200 q 286 1262 283 1247 q 305 1290 289 1276 q 359 1303 321 1303 q 410 1282 397 1303 q 422 1231 422 1261 q 419 1186 422 1200 m 714 1186 q 713 1179 714 1186 q 694 1159 711 1172 q 647 1146 678 1146 q 599 1159 615 1146 q 581 1186 583 1172 q 578 1224 578 1200 q 581 1262 578 1247 q 599 1290 583 1276 q 653 1303 615 1303 q 704 1282 692 1303 q 717 1231 717 1261 q 714 1186 717 1200 z "},"×":{"ha":806,"x_min":151,"x_max":654,"o":"m 217 190 l 151 256 l 336 442 l 151 628 l 217 693 l 403 508 l 589 693 l 654 628 l 469 442 l 654 256 l 589 190 l 403 375 l 217 190 z "},"Ø":{"ha":1001,"x_min":103,"x_max":899,"o":"m 103 507 q 219 933 103 810 q 500 1033 315 1033 q 578 1028 531 1033 l 607 1149 l 692 1149 l 658 1008 q 850 819 794 963 q 899 507 899 694 q 881 299 899 388 q 821 135 864 210 q 500 -19 732 -19 q 419 -14 469 -19 l 393 -131 l 310 -131 l 340 4 q 156 179 208 51 q 103 507 103 307 m 500 81 q 722 206 661 81 q 776 507 776 318 q 633 901 776 819 l 443 85 q 500 81 468 81 m 225 507 q 365 111 225 192 l 556 928 q 500 933 519 933 q 306 851 371 933 q 225 507 225 750 z "},"Ù":{"ha":968,"x_min":126,"x_max":842,"o":"m 719 1014 l 842 1014 l 842 335 q 819 175 842 242 q 765 72 797 108 q 681 13 732 35 q 585 -14 629 -8 q 483 -19 542 -19 q 381 -14 425 -19 q 287 13 338 -8 q 203 72 236 35 q 149 175 171 108 q 126 335 126 242 l 126 1014 l 249 1014 l 249 339 q 325 125 249 178 q 399 92 363 100 q 484 83 435 83 q 569 92 533 83 q 643 125 606 100 q 719 339 719 176 l 719 1014 m 603 1151 l 549 1088 l 294 1279 l 369 1368 l 603 1151 z "},"Ú":{"ha":968,"x_min":126,"x_max":842,"o":"m 719 1014 l 842 1014 l 842 335 q 819 175 842 242 q 765 72 797 108 q 681 13 732 35 q 585 -14 629 -8 q 483 -19 542 -19 q 381 -14 425 -19 q 287 13 338 -8 q 203 72 236 35 q 149 175 171 108 q 126 335 126 242 l 126 1014 l 249 1014 l 249 339 q 325 125 249 178 q 399 92 363 100 q 484 83 435 83 q 569 92 533 83 q 643 125 606 100 q 719 339 719 176 l 719 1014 m 465 1088 l 411 1151 l 644 1368 l 719 1279 l 465 1088 z "},"Û":{"ha":968,"x_min":126,"x_max":842,"o":"m 719 1014 l 842 1014 l 842 335 q 819 175 842 242 q 765 72 797 108 q 681 13 732 35 q 585 -14 629 -8 q 483 -19 542 -19 q 381 -14 425 -19 q 287 13 338 -8 q 203 72 236 35 q 149 175 171 108 q 126 335 126 242 l 126 1014 l 249 1014 l 249 339 q 325 125 249 178 q 399 92 363 100 q 484 83 435 83 q 569 92 533 83 q 643 125 606 100 q 719 339 719 176 l 719 1014 m 331 1097 l 281 1147 l 467 1360 l 518 1360 l 704 1147 l 654 1097 l 492 1231 l 331 1097 z "},"Ü":{"ha":968,"x_min":126,"x_max":842,"o":"m 719 1014 l 842 1014 l 842 335 q 819 175 842 242 q 765 72 797 108 q 681 13 732 35 q 585 -14 629 -8 q 483 -19 542 -19 q 381 -14 425 -19 q 287 13 338 -8 q 203 72 236 35 q 149 175 171 108 q 126 335 126 242 l 126 1014 l 249 1014 l 249 339 q 325 125 249 178 q 399 92 363 100 q 484 83 435 83 q 569 92 533 83 q 643 125 606 100 q 719 339 719 176 l 719 1014 m 413 1186 q 411 1179 413 1186 q 393 1159 410 1172 q 345 1146 376 1146 q 298 1159 314 1146 q 279 1186 282 1172 q 276 1224 276 1200 q 279 1262 276 1247 q 298 1290 282 1276 q 352 1303 314 1303 q 403 1282 390 1303 q 415 1231 415 1261 q 413 1186 415 1200 m 707 1186 q 706 1179 707 1186 q 688 1159 704 1172 q 640 1146 671 1146 q 592 1159 608 1146 q 574 1186 576 1172 q 571 1224 571 1200 q 574 1262 571 1247 q 592 1290 576 1276 q 647 1303 608 1303 q 697 1282 685 1303 q 710 1231 710 1261 q 707 1186 710 1200 z "},"Ý":{"ha":764,"x_min":8,"x_max":756,"o":"m 443 0 l 321 0 l 321 353 l 8 1014 l 133 1014 l 382 472 l 631 1014 l 756 1014 l 443 353 l 443 0 m 311 1088 l 257 1151 l 490 1368 l 565 1279 l 311 1088 z "},"Þ":{"ha":807,"x_min":147,"x_max":749,"o":"m 442 190 l 269 190 l 269 0 l 147 0 l 147 1014 l 269 1014 l 269 822 l 442 822 q 749 506 749 822 q 442 190 749 190 m 269 296 l 435 296 q 554 326 510 296 q 613 400 599 357 q 626 523 626 443 q 585 660 626 603 q 435 717 544 717 l 269 717 l 269 296 z "},"ß":{"ha":892,"x_min":161,"x_max":856,"o":"m 654 546 q 801 457 747 528 q 856 265 856 386 q 791 62 856 143 q 597 -19 726 -19 q 410 49 467 -19 q 353 254 353 118 l 453 254 q 483 122 453 165 q 591 79 514 79 q 702 135 668 79 q 736 283 736 192 q 698 427 736 374 q 567 481 660 481 l 413 481 l 413 571 l 501 571 q 615 629 575 571 q 654 771 654 688 q 607 901 654 854 q 467 947 560 947 q 328 900 375 947 q 281 768 281 853 l 281 0 l 161 0 l 161 768 q 242 972 161 899 q 471 1046 324 1046 q 696 973 618 1046 q 774 774 774 900 q 741 644 774 704 q 654 546 708 585 z "},"à":{"ha":814,"x_min":74,"x_max":681,"o":"m 597 761 q 681 536 681 701 l 681 0 l 601 0 l 571 124 q 278 -19 438 -19 q 123 36 172 -19 q 74 186 74 92 q 133 339 74 281 q 354 424 192 397 l 561 457 l 561 536 q 517 678 561 639 q 397 717 474 717 q 215 568 244 717 l 118 597 q 211 757 140 700 q 403 814 282 814 q 597 761 525 814 m 311 72 q 561 207 436 72 l 561 374 l 365 340 q 229 284 267 322 q 192 191 192 246 q 221 104 192 136 q 311 72 250 72 m 546 932 l 492 868 l 238 1060 l 313 1149 l 546 932 z "},"á":{"ha":814,"x_min":74,"x_max":681,"o":"m 597 761 q 681 536 681 701 l 681 0 l 601 0 l 571 124 q 278 -19 438 -19 q 123 36 172 -19 q 74 186 74 92 q 133 339 74 281 q 354 424 192 397 l 561 457 l 561 536 q 517 678 561 639 q 397 717 474 717 q 215 568 244 717 l 118 597 q 211 757 140 700 q 403 814 282 814 q 597 761 525 814 m 311 72 q 561 207 436 72 l 561 374 l 365 340 q 229 284 267 322 q 192 191 192 246 q 221 104 192 136 q 311 72 250 72 m 361 868 l 307 932 l 540 1149 l 615 1060 l 361 868 z "},"â":{"ha":814,"x_min":74,"x_max":681,"o":"m 597 761 q 681 536 681 701 l 681 0 l 601 0 l 571 124 q 278 -19 438 -19 q 123 36 172 -19 q 74 186 74 92 q 133 339 74 281 q 354 424 192 397 l 561 457 l 561 536 q 517 678 561 639 q 397 717 474 717 q 215 568 244 717 l 118 597 q 211 757 140 700 q 403 814 282 814 q 597 761 525 814 m 311 72 q 561 207 436 72 l 561 374 l 365 340 q 229 284 267 322 q 192 191 192 246 q 221 104 192 136 q 311 72 250 72 m 233 878 l 183 928 l 369 1140 l 421 1140 l 607 928 l 557 878 l 394 1011 l 233 878 z "},"ã":{"ha":814,"x_min":74,"x_max":681,"o":"m 597 761 q 681 536 681 701 l 681 0 l 601 0 l 571 124 q 278 -19 438 -19 q 123 36 172 -19 q 74 186 74 92 q 133 339 74 281 q 354 424 192 397 l 561 457 l 561 536 q 517 678 561 639 q 397 717 474 717 q 215 568 244 717 l 118 597 q 211 757 140 700 q 403 814 282 814 q 597 761 525 814 m 311 72 q 561 207 436 72 l 561 374 l 365 340 q 229 284 267 322 q 192 191 192 246 q 221 104 192 136 q 311 72 250 72 m 624 1072 q 500 935 586 935 q 394 960 461 935 q 305 985 326 985 q 269 970 283 985 q 244 924 256 956 l 165 949 q 217 1055 186 1024 q 288 1086 249 1086 q 396 1061 328 1086 q 485 1036 464 1036 q 521 1050 507 1036 q 546 1097 535 1064 l 624 1072 z "},"ä":{"ha":814,"x_min":74,"x_max":681,"o":"m 597 761 q 681 536 681 701 l 681 0 l 601 0 l 571 124 q 278 -19 438 -19 q 123 36 172 -19 q 74 186 74 92 q 133 339 74 281 q 354 424 192 397 l 561 457 l 561 536 q 517 678 561 639 q 397 717 474 717 q 215 568 244 717 l 118 597 q 211 757 140 700 q 403 814 282 814 q 597 761 525 814 m 311 72 q 561 207 436 72 l 561 374 l 365 340 q 229 284 267 322 q 192 191 192 246 q 221 104 192 136 q 311 72 250 72 m 338 967 q 336 960 338 967 q 318 940 335 953 q 270 926 301 926 q 223 940 239 926 q 204 967 207 953 q 201 1004 201 981 q 204 1042 201 1028 q 223 1070 207 1057 q 277 1083 239 1083 q 328 1063 315 1083 q 340 1011 340 1042 q 338 967 340 981 m 632 967 q 631 960 632 967 q 613 940 629 953 q 565 926 596 926 q 517 940 533 926 q 499 967 501 953 q 496 1004 496 981 q 499 1042 496 1028 q 517 1070 501 1057 q 572 1083 533 1083 q 622 1063 610 1083 q 635 1011 635 1042 q 632 967 635 981 z "},"å":{"ha":814,"x_min":74,"x_max":681,"o":"m 597 761 q 681 536 681 701 l 681 0 l 601 0 l 571 124 q 278 -19 438 -19 q 123 36 172 -19 q 74 186 74 92 q 133 339 74 281 q 354 424 192 397 l 561 457 l 561 536 q 517 678 561 639 q 397 717 474 717 q 215 568 244 717 l 118 597 q 211 757 140 700 q 403 814 282 814 q 597 761 525 814 m 311 72 q 561 207 436 72 l 561 374 l 365 340 q 229 284 267 322 q 192 191 192 246 q 221 104 192 136 q 311 72 250 72 m 421 928 q 486 1007 486 928 q 421 1086 486 1086 q 360 1007 360 1086 q 421 928 360 928 m 421 863 q 279 1007 279 863 q 289 1073 279 1043 q 332 1128 299 1103 q 421 1153 365 1153 q 565 1008 565 1153 q 421 863 565 863 z "},"æ":{"ha":1289,"x_min":72,"x_max":1221,"o":"m 899 -19 q 600 150 672 -19 q 281 -19 453 -19 q 123 37 174 -19 q 72 187 72 93 q 131 340 72 281 q 351 428 190 400 l 558 464 l 558 536 q 515 678 558 639 q 397 717 472 717 q 274 678 321 717 q 213 568 226 639 l 117 596 q 397 814 164 814 q 640 706 578 814 q 893 814 724 814 q 1221 414 1221 814 l 1221 385 l 679 385 q 729 149 681 221 q 899 78 778 78 q 1110 238 1096 78 l 1208 232 q 899 -19 1182 -19 m 311 72 q 576 221 451 72 q 561 374 561 310 l 364 338 q 226 281 264 319 q 189 190 189 243 q 219 104 189 136 q 311 72 249 72 m 1101 474 q 1049 653 1094 590 q 894 717 1003 717 q 739 652 786 717 q 682 474 692 588 l 1101 474 z "},"ç":{"ha":764,"x_min":75,"x_max":703,"o":"m 194 397 q 203 276 194 329 q 233 176 211 224 q 407 78 279 78 q 556 119 511 78 q 606 240 601 160 l 703 236 q 625 47 693 113 q 403 -19 557 -19 q 114 158 185 -19 q 75 371 75 256 q 89 555 75 486 q 138 686 103 624 q 403 814 210 814 q 625 751 557 814 q 701 568 693 688 l 606 554 q 556 676 601 635 q 407 717 511 717 q 233 618 279 717 q 194 397 194 536 m 240 -197 l 332 -197 q 335 -229 332 -218 q 382 -257 342 -257 q 432 -242 422 -257 q 442 -197 442 -228 q 428 -152 442 -167 q 381 -132 415 -137 l 306 -118 l 315 -69 l 374 -69 q 490 -96 451 -69 q 528 -194 528 -122 q 497 -300 528 -265 q 384 -335 465 -335 q 272 -299 303 -335 q 240 -197 240 -264 z "},"è":{"ha":803,"x_min":75,"x_max":735,"o":"m 413 -19 q 153 84 231 -19 q 75 397 75 188 q 407 814 75 814 q 735 414 735 814 l 735 385 l 193 385 q 243 149 194 221 q 413 78 292 78 q 624 238 610 78 l 722 232 q 413 -19 696 -19 m 615 474 q 563 653 608 590 q 408 717 517 717 q 253 652 300 717 q 196 474 206 588 l 615 474 m 564 932 l 510 868 l 256 1060 l 331 1149 l 564 932 z "},"é":{"ha":803,"x_min":75,"x_max":735,"o":"m 413 -19 q 153 84 231 -19 q 75 397 75 188 q 407 814 75 814 q 735 414 735 814 l 735 385 l 193 385 q 243 149 194 221 q 413 78 292 78 q 624 238 610 78 l 722 232 q 413 -19 696 -19 m 615 474 q 563 653 608 590 q 408 717 517 717 q 253 652 300 717 q 196 474 206 588 l 615 474 m 368 868 l 314 932 l 547 1149 l 622 1060 l 368 868 z "},"ê":{"ha":803,"x_min":75,"x_max":735,"o":"m 413 -19 q 153 84 231 -19 q 75 397 75 188 q 407 814 75 814 q 735 414 735 814 l 735 385 l 193 385 q 243 149 194 221 q 413 78 292 78 q 624 238 610 78 l 722 232 q 413 -19 696 -19 m 615 474 q 563 653 608 590 q 408 717 517 717 q 253 652 300 717 q 196 474 206 588 l 615 474 m 251 878 l 201 928 l 388 1140 l 439 1140 l 625 928 l 575 878 l 413 1011 l 251 878 z "},"ë":{"ha":792,"x_min":64,"x_max":724,"o":"m 401 -19 q 142 84 219 -19 q 64 397 64 188 q 396 814 64 814 q 724 414 724 814 l 724 385 l 182 385 q 232 149 183 221 q 401 78 281 78 q 613 238 599 78 l 711 232 q 401 -19 685 -19 m 604 474 q 551 653 597 590 q 397 717 506 717 q 242 652 289 717 q 185 474 194 588 l 604 474 m 321 967 q 319 960 321 967 q 301 940 318 953 q 253 926 285 926 q 206 940 222 926 q 188 967 190 953 q 185 1004 185 981 q 188 1042 185 1028 q 206 1070 190 1057 q 260 1083 222 1083 q 311 1063 299 1083 q 324 1011 324 1042 q 321 967 324 981 m 615 967 q 614 960 615 967 q 596 940 613 953 q 548 926 579 926 q 501 940 517 926 q 482 967 485 953 q 479 1004 479 981 q 482 1042 479 1028 q 501 1070 485 1057 q 555 1083 517 1083 q 606 1063 593 1083 q 618 1011 618 1042 q 615 967 618 981 z "},"ì":{"ha":414,"x_min":36,"x_max":344,"o":"m 147 794 l 267 794 l 267 0 l 147 0 l 147 794 m 344 932 l 290 868 l 36 1060 l 111 1149 l 344 932 z "},"í":{"ha":414,"x_min":76,"x_max":385,"o":"m 147 794 l 267 794 l 267 0 l 147 0 l 147 794 m 131 868 l 76 932 l 310 1149 l 385 1060 l 131 868 z "},"î":{"ha":414,"x_min":-18,"x_max":406,"o":"m 147 794 l 267 794 l 267 0 l 147 0 l 147 794 m 32 878 l -18 928 l 168 1140 l 219 1140 l 406 928 l 356 878 l 193 1011 l 32 878 z "},"ï":{"ha":414,"x_min":-10,"x_max":424,"o":"m 147 794 l 267 794 l 267 0 l 147 0 l 147 794 m 126 967 q 125 960 126 967 q 107 940 124 953 q 59 926 90 926 q 12 940 28 926 q -7 967 -4 953 q -10 1004 -10 981 q -7 1042 -10 1028 q 12 1070 -4 1057 q 66 1083 28 1083 q 117 1063 104 1083 q 129 1011 129 1042 q 126 967 129 981 m 421 967 q 419 960 421 967 q 401 940 418 953 q 353 926 385 926 q 306 940 322 926 q 288 967 290 953 q 285 1004 285 981 q 288 1042 285 1028 q 306 1070 290 1057 q 360 1083 322 1083 q 411 1063 399 1083 q 424 1011 424 1042 q 421 967 424 981 z "},"ð":{"ha":839,"x_min":75,"x_max":764,"o":"m 764 371 l 764 342 q 561 3 764 72 q 419 -19 500 -19 q 277 2 339 -19 q 178 58 215 24 q 117 142 140 93 q 75 342 75 228 q 142 583 75 483 q 249 671 178 639 q 430 703 319 703 q 621 625 540 703 q 521 853 588 751 l 375 794 l 375 882 l 471 919 q 401 992 443 953 l 460 1061 q 563 957 515 1013 l 733 1026 l 733 939 l 613 890 q 764 371 764 668 m 194 342 q 194 209 194 342 q 419 76 194 76 q 644 342 644 76 q 419 607 644 607 q 194 342 194 607 z "},"ñ":{"ha":908,"x_min":147,"x_max":775,"o":"m 251 711 q 528 814 392 814 q 719 752 664 814 q 775 564 775 690 l 775 0 l 656 0 l 656 561 q 624 681 656 644 q 517 717 592 717 q 267 624 388 717 l 267 0 l 147 0 l 147 794 l 218 794 l 251 711 m 704 1072 q 581 935 667 935 q 474 960 542 935 q 385 985 407 985 q 350 970 364 985 q 325 924 336 956 l 246 949 q 298 1055 267 1024 q 369 1086 329 1086 q 476 1061 408 1086 q 566 1036 544 1036 q 601 1050 588 1036 q 626 1097 615 1064 l 704 1072 z "},"ò":{"ha":839,"x_min":75,"x_max":764,"o":"m 303 103 q 327 91 303 103 q 419 78 350 78 q 535 103 489 78 q 604 177 582 129 q 635 277 626 225 q 644 397 644 329 q 635 517 644 465 q 604 617 626 569 q 535 691 582 665 q 419 717 489 717 q 303 691 350 717 q 234 617 257 665 q 203 518 211 569 q 194 397 194 467 q 203 276 194 328 q 234 177 211 225 q 303 103 257 129 m 764 397 q 764 189 764 397 q 419 -19 764 -19 q 75 397 75 -19 q 419 814 75 814 q 764 397 764 814 m 571 932 l 517 868 l 263 1060 l 338 1149 l 571 932 z "},"ó":{"ha":839,"x_min":75,"x_max":764,"o":"m 303 103 q 327 91 303 103 q 419 78 350 78 q 535 103 489 78 q 604 177 582 129 q 635 277 626 225 q 644 397 644 329 q 635 517 644 465 q 604 617 626 569 q 535 691 582 665 q 419 717 489 717 q 303 691 350 717 q 234 617 257 665 q 203 518 211 569 q 194 397 194 467 q 203 276 194 328 q 234 177 211 225 q 303 103 257 129 m 764 397 q 764 189 764 397 q 419 -19 764 -19 q 75 397 75 -19 q 419 814 75 814 q 764 397 764 814 m 374 868 l 319 932 l 553 1149 l 628 1060 l 374 868 z "},"ô":{"ha":839,"x_min":75,"x_max":764,"o":"m 303 103 q 327 91 303 103 q 419 78 350 78 q 535 103 489 78 q 604 177 582 129 q 635 277 626 225 q 644 397 644 329 q 635 517 644 465 q 604 617 626 569 q 535 691 582 665 q 419 717 489 717 q 303 691 350 717 q 234 617 257 665 q 203 518 211 569 q 194 397 194 467 q 203 276 194 328 q 234 177 211 225 q 303 103 257 129 m 764 397 q 764 189 764 397 q 419 -19 764 -19 q 75 397 75 -19 q 419 814 75 814 q 764 397 764 814 m 257 878 l 207 928 l 393 1140 l 444 1140 l 631 928 l 581 878 l 418 1011 l 257 878 z "},"õ":{"ha":839,"x_min":75,"x_max":764,"o":"m 303 103 q 327 91 303 103 q 419 78 350 78 q 535 103 489 78 q 604 177 582 129 q 635 277 626 225 q 644 397 644 329 q 635 517 644 465 q 604 617 626 569 q 535 691 582 665 q 419 717 489 717 q 303 691 350 717 q 234 617 257 665 q 203 518 211 569 q 194 397 194 467 q 203 276 194 328 q 234 177 211 225 q 303 103 257 129 m 764 397 q 764 189 764 397 q 419 -19 764 -19 q 75 397 75 -19 q 419 814 75 814 q 764 397 764 814 m 649 1072 q 525 935 611 935 q 419 960 486 935 q 330 985 351 985 q 294 970 308 985 q 269 924 281 956 l 190 949 q 242 1055 211 1024 q 313 1086 274 1086 q 421 1061 353 1086 q 510 1036 489 1036 q 546 1050 532 1036 q 571 1097 560 1064 l 649 1072 z "},"ö":{"ha":839,"x_min":75,"x_max":764,"o":"m 303 103 q 327 91 303 103 q 419 78 350 78 q 535 103 489 78 q 604 177 582 129 q 635 277 626 225 q 644 397 644 329 q 635 517 644 465 q 604 617 626 569 q 535 691 582 665 q 419 717 489 717 q 303 691 350 717 q 234 617 257 665 q 203 518 211 569 q 194 397 194 467 q 203 276 194 328 q 234 177 211 225 q 303 103 257 129 m 764 397 q 764 189 764 397 q 419 -19 764 -19 q 75 397 75 -19 q 419 814 75 814 q 764 397 764 814 m 339 967 q 338 960 339 967 q 319 940 336 953 q 272 926 303 926 q 224 940 240 926 q 206 967 208 953 q 203 1004 203 981 q 206 1042 203 1028 q 224 1070 208 1057 q 278 1083 240 1083 q 329 1063 317 1083 q 342 1011 342 1042 q 339 967 342 981 m 633 967 q 632 960 633 967 q 614 940 631 953 q 566 926 597 926 q 519 940 535 926 q 500 967 503 953 q 497 1004 497 981 q 500 1042 497 1028 q 519 1070 503 1057 q 573 1083 535 1083 q 624 1063 611 1083 q 636 1011 636 1042 q 633 967 636 981 z "},"÷":{"ha":806,"x_min":128,"x_max":678,"o":"m 128 394 l 128 489 l 678 489 l 678 394 l 128 394 m 465 144 q 461 136 465 144 q 442 122 458 129 q 402 115 426 115 q 363 122 378 115 q 342 144 347 129 q 331 194 331 168 q 333 233 331 221 q 342 261 335 246 q 401 289 353 289 q 464 261 453 289 q 475 210 475 236 q 473 171 475 183 q 465 144 471 158 m 465 609 q 461 602 465 609 q 442 588 458 594 q 402 581 426 581 q 363 588 378 581 q 342 608 347 594 q 331 660 331 633 q 333 699 331 686 q 342 725 335 711 q 401 754 353 754 q 464 725 453 754 q 475 675 475 701 q 473 636 475 649 q 465 609 471 624 z "},"ø":{"ha":839,"x_min":75,"x_max":764,"o":"m 75 397 q 419 814 75 814 q 488 808 446 814 l 526 953 l 611 953 l 567 789 q 764 397 764 713 q 419 -19 764 -19 q 351 -15 383 -19 l 313 -160 l 229 -160 l 272 4 q 75 397 75 79 m 194 397 q 300 106 194 168 l 463 713 q 419 717 442 717 q 233 617 282 717 q 194 397 194 535 m 419 78 q 604 178 558 78 q 644 397 644 264 q 539 688 644 624 l 376 81 q 419 78 390 78 z "},"ù":{"ha":917,"x_min":133,"x_max":769,"o":"m 368 -19 q 189 42 244 -19 q 133 228 133 104 l 133 794 l 253 794 l 253 236 q 288 116 253 154 q 399 78 324 78 q 650 215 533 78 l 650 794 l 769 794 l 769 0 l 690 0 l 653 118 q 368 -19 524 -19 m 575 932 l 521 868 l 267 1060 l 342 1149 l 575 932 z "},"ú":{"ha":917,"x_min":133,"x_max":769,"o":"m 368 -19 q 189 42 244 -19 q 133 228 133 104 l 133 794 l 253 794 l 253 236 q 288 116 253 154 q 399 78 324 78 q 650 215 533 78 l 650 794 l 769 794 l 769 0 l 690 0 l 653 118 q 368 -19 524 -19 m 425 868 l 371 932 l 604 1149 l 679 1060 l 425 868 z "},"û":{"ha":917,"x_min":133,"x_max":769,"o":"m 368 -19 q 189 42 244 -19 q 133 228 133 104 l 133 794 l 253 794 l 253 236 q 288 116 253 154 q 399 78 324 78 q 650 215 533 78 l 650 794 l 769 794 l 769 0 l 690 0 l 653 118 q 368 -19 524 -19 m 304 878 l 254 928 l 440 1140 l 492 1140 l 678 928 l 628 878 l 465 1011 l 304 878 z "},"ü":{"ha":917,"x_min":133,"x_max":769,"o":"m 368 -19 q 189 42 244 -19 q 133 228 133 104 l 133 794 l 253 794 l 253 236 q 288 116 253 154 q 399 78 324 78 q 650 215 533 78 l 650 794 l 769 794 l 769 0 l 690 0 l 653 118 q 368 -19 524 -19 m 385 967 q 383 960 385 967 q 365 940 382 953 q 317 926 349 926 q 270 940 286 926 q 251 967 254 953 q 249 1004 249 981 q 251 1042 249 1028 q 270 1070 254 1057 q 324 1083 286 1083 q 375 1063 363 1083 q 388 1011 388 1042 q 385 967 388 981 m 679 967 q 678 960 679 967 q 660 940 676 953 q 612 926 643 926 q 565 940 581 926 q 546 967 549 953 q 543 1004 543 981 q 546 1042 543 1028 q 565 1070 549 1057 q 619 1083 581 1083 q 669 1063 657 1083 q 682 1011 682 1042 q 679 967 682 981 z "},"ý":{"ha":753,"x_min":22,"x_max":731,"o":"m 308 -340 l 200 -321 l 322 -6 l 22 794 l 146 794 l 381 151 l 608 794 l 731 794 l 308 -340 m 319 868 l 265 932 l 499 1149 l 574 1060 l 319 868 z "},"þ":{"ha":874,"x_min":147,"x_max":799,"o":"m 490 814 q 799 397 799 814 q 490 -19 799 -19 q 267 28 379 -19 l 267 -308 l 147 -308 l 147 1014 l 267 1039 l 267 729 q 490 814 375 814 m 478 711 q 267 625 363 711 l 267 124 q 478 83 360 83 q 679 397 679 83 q 478 711 679 711 z "},"ÿ":{"ha":753,"x_min":22,"x_max":731,"o":"m 308 -340 l 200 -321 l 322 -6 l 22 794 l 146 794 l 381 151 l 608 794 l 731 794 l 308 -340 m 319 967 q 318 960 319 967 q 300 940 317 953 q 252 926 283 926 q 205 940 221 926 q 186 967 189 953 q 183 1004 183 981 q 186 1042 183 1028 q 205 1070 189 1057 q 259 1083 221 1083 q 310 1063 297 1083 q 322 1011 322 1042 q 319 967 322 981 m 614 967 q 613 960 614 967 q 594 940 611 953 q 547 926 578 926 q 499 940 515 926 q 481 967 483 953 q 478 1004 478 981 q 481 1042 478 1028 q 499 1070 483 1057 q 553 1083 515 1083 q 604 1063 592 1083 q 617 1011 617 1042 q 614 967 617 981 z "},"ı":{"ha":414,"x_min":147,"x_max":267,"o":"m 147 794 l 267 794 l 267 0 l 147 0 l 147 794 z "},"Ł":{"ha":669,"x_min":31,"x_max":647,"o":"m 147 1014 l 269 1014 l 269 594 l 389 643 l 389 556 l 269 507 l 269 97 l 647 97 l 647 0 l 147 0 l 147 458 l 31 411 l 31 499 l 147 546 l 147 1014 z "},"ł":{"ha":414,"x_min":28,"x_max":386,"o":"m 267 0 l 147 0 l 147 458 l 28 411 l 28 499 l 147 546 l 147 1053 l 267 1069 l 267 594 l 386 643 l 386 556 l 267 507 l 267 0 z "},"Œ":{"ha":1343,"x_min":103,"x_max":1279,"o":"m 493 0 q 178 139 264 0 q 119 296 136 208 q 103 506 103 383 q 119 717 103 629 q 178 875 136 804 q 493 1014 263 1014 l 1251 1014 l 1251 917 l 774 917 q 883 564 874 813 l 1222 564 l 1222 467 l 883 467 q 775 97 879 204 l 1279 97 l 1279 0 l 493 0 m 490 99 q 568 99 490 99 q 704 201 646 99 q 763 507 763 304 q 704 813 763 710 q 493 915 646 915 q 278 803 333 915 q 225 507 225 700 q 278 211 225 314 q 490 99 333 99 z "},"œ":{"ha":1374,"x_min":75,"x_max":1306,"o":"m 983 -19 q 701 121 778 -19 q 419 -19 618 -19 q 75 397 75 -19 q 419 814 75 814 q 703 669 621 814 q 978 814 785 814 q 1306 414 1306 814 l 1306 385 l 764 385 q 816 151 767 225 q 983 78 865 78 q 1194 238 1178 78 l 1293 232 q 983 -19 1267 -19 m 303 103 q 418 78 350 78 q 532 102 486 78 q 601 171 578 126 q 644 381 644 251 q 607 611 644 522 q 419 717 561 717 q 233 617 282 717 q 194 397 194 535 q 303 103 194 164 m 1186 474 q 1133 653 1179 590 q 978 717 1088 717 q 823 652 869 717 q 767 474 776 588 l 1186 474 z "},"Š":{"ha":831,"x_min":78,"x_max":753,"o":"m 485 550 q 692 449 632 508 q 753 265 753 389 q 666 60 753 140 q 415 -19 579 -19 q 174 49 250 -19 q 78 244 97 117 l 178 263 q 404 79 204 79 q 631 258 631 79 q 589 374 631 336 q 450 438 547 411 l 358 464 q 157 563 215 503 q 99 748 99 624 q 182 953 99 872 q 424 1033 265 1033 q 656 965 583 1033 q 747 769 728 897 l 647 751 q 436 935 621 935 q 221 756 221 935 q 259 640 221 678 q 389 576 297 601 l 485 550 m 585 1357 l 635 1307 l 449 1094 l 397 1094 l 211 1307 l 261 1357 l 424 1224 l 585 1357 z "},"š":{"ha":750,"x_min":78,"x_max":672,"o":"m 440 443 q 619 362 565 413 q 672 210 672 311 q 597 47 672 110 q 375 -15 522 -15 q 162 41 228 -15 q 78 204 96 97 l 175 219 q 365 79 196 79 q 553 206 553 79 q 519 288 553 261 q 397 336 485 314 l 318 356 q 147 436 197 386 q 96 588 96 486 q 168 752 96 690 q 381 814 240 814 q 585 758 522 814 q 667 594 649 701 l 568 579 q 390 719 550 719 q 215 593 215 719 q 247 510 215 538 q 360 463 279 483 l 440 443 m 581 1138 l 631 1088 l 444 875 l 393 875 l 207 1088 l 257 1138 l 419 1004 l 581 1138 z "},"Ÿ":{"ha":764,"x_min":8,"x_max":756,"o":"m 443 0 l 321 0 l 321 353 l 8 1014 l 133 1014 l 382 472 l 631 1014 l 756 1014 l 443 353 l 443 0 m 301 1186 q 300 1179 301 1186 q 282 1159 299 1172 q 234 1146 265 1146 q 187 1159 203 1146 q 168 1186 171 1172 q 165 1224 165 1200 q 168 1262 165 1247 q 187 1290 171 1276 q 241 1303 203 1303 q 292 1282 279 1303 q 304 1231 304 1261 q 301 1186 304 1200 m 596 1186 q 594 1179 596 1186 q 576 1159 593 1172 q 528 1146 560 1146 q 481 1159 497 1146 q 463 1186 465 1172 q 460 1224 460 1200 q 463 1262 460 1247 q 481 1290 465 1276 q 535 1303 497 1303 q 586 1282 574 1303 q 599 1231 599 1261 q 596 1186 599 1200 z "},"Ž":{"ha":763,"x_min":39,"x_max":724,"o":"m 710 1014 l 710 936 l 188 97 l 724 97 l 724 0 l 39 0 l 39 78 l 561 917 l 65 917 l 67 1014 l 710 1014 m 557 1357 l 607 1307 l 421 1094 l 369 1094 l 183 1307 l 233 1357 l 396 1224 l 557 1357 z "},"ž":{"ha":722,"x_min":58,"x_max":664,"o":"m 75 703 l 75 794 l 646 794 l 646 714 l 204 92 l 664 92 l 664 0 l 58 0 l 58 81 l 503 703 l 75 703 m 556 1138 l 606 1088 l 419 875 l 368 875 l 182 1088 l 232 1138 l 394 1004 l 556 1138 z "},"ƒ":{"ha":875,"x_min":169,"x_max":781,"o":"m 610 935 q 464 721 464 935 l 464 519 l 700 519 l 700 436 l 464 436 l 464 -3 q 404 -233 464 -162 q 185 -303 344 -303 l 178 -197 q 306 -154 269 -197 q 342 -3 342 -111 l 342 436 l 169 436 l 169 519 l 342 519 l 342 721 q 406 957 342 881 q 606 1033 469 1033 q 781 988 708 1033 l 740 901 q 610 935 686 935 z "},"ˆ":{"ha":551,"x_min":64,"x_max":488,"o":"m 114 878 l 64 928 l 250 1140 l 301 1140 l 488 928 l 438 878 l 275 1011 l 114 878 z "},"ˇ":{"ha":510,"x_min":43,"x_max":467,"o":"m 417 1138 l 467 1088 l 281 875 l 229 875 l 43 1088 l 93 1138 l 256 1004 l 417 1138 z "},"˘":{"ha":585,"x_min":114,"x_max":471,"o":"m 386 1085 l 471 1085 q 442 953 471 1001 q 295 892 407 892 q 149 943 183 892 q 114 1085 114 994 l 197 1085 q 239 992 197 1007 q 306 983 260 983 q 369 1009 351 983 q 386 1085 386 1035 z "},"˙":{"ha":375,"x_min":118,"x_max":279,"o":"m 276 960 q 274 951 276 960 q 253 925 272 942 q 198 908 233 908 q 144 925 163 908 q 122 960 125 942 q 118 1008 118 978 q 122 1056 118 1038 q 144 1090 125 1074 q 198 1107 163 1107 q 253 1090 233 1107 q 276 1056 272 1074 q 279 1008 279 1038 q 276 960 279 978 z "},"˚":{"ha":375,"x_min":44,"x_max":331,"o":"m 186 928 q 251 1007 251 928 q 186 1086 251 1086 q 125 1007 125 1086 q 186 928 125 928 m 186 863 q 44 1007 44 863 q 54 1073 44 1043 q 97 1128 64 1103 q 186 1153 131 1153 q 331 1008 331 1153 q 186 863 331 863 z "},"˛":{"ha":456,"x_min":61,"x_max":392,"o":"m 201 -307 q 96 -273 131 -307 q 61 -183 61 -239 q 93 -92 61 -126 q 190 -18 125 -58 l 317 60 l 350 11 l 236 -58 q 168 -112 188 -89 q 149 -165 149 -135 q 217 -229 149 -229 q 335 -147 286 -229 l 392 -183 q 201 -307 324 -307 z "},"˜":{"ha":564,"x_min":53,"x_max":511,"o":"m 511 1072 q 389 935 472 935 q 281 960 349 935 q 192 985 214 985 q 157 970 171 985 q 132 924 143 956 l 53 949 q 105 1055 74 1024 q 176 1086 136 1086 q 283 1061 215 1086 q 373 1036 351 1036 q 408 1050 394 1036 q 433 1097 422 1064 l 511 1072 z "},"˝":{"ha":754,"x_min":56,"x_max":701,"o":"m 110 868 l 56 932 l 289 1149 l 364 1060 l 110 868 m 447 868 l 393 932 l 626 1149 l 701 1060 l 447 868 z "},"π":{"ha":888,"x_min":89,"x_max":799,"o":"m 89 713 l 89 794 l 799 794 l 799 713 l 715 713 l 715 0 l 596 0 l 596 713 l 292 713 l 292 0 l 172 0 l 172 713 l 89 713 z "},"–":{"ha":800,"x_min":94,"x_max":706,"o":"m 94 394 l 94 489 l 706 489 l 706 394 l 94 394 z "},"—":{"ha":1263,"x_min":94,"x_max":1168,"o":"m 94 394 l 94 489 l 1168 489 l 1168 394 l 94 394 z "},"‘":{"ha":390,"x_min":103,"x_max":288,"o":"m 232 936 q 241 890 232 922 q 250 837 250 858 q 248 803 250 815 q 239 775 246 790 q 180 747 228 747 q 117 771 132 747 q 103 839 103 794 q 122 930 103 883 q 171 1011 140 976 q 251 1088 217 1061 l 288 1046 q 232 936 232 997 z "},"’":{"ha":382,"x_min":103,"x_max":288,"o":"m 158 900 q 149 945 158 913 q 140 999 140 978 q 142 1032 140 1019 q 150 1058 144 1044 q 210 1088 163 1088 q 273 1064 258 1088 q 288 989 288 1040 q 251 875 288 938 q 189 789 215 813 q 139 747 163 765 l 103 790 q 158 900 158 839 z "},"‚":{"ha":314,"x_min":46,"x_max":231,"o":"m 103 -21 q 93 25 103 -7 q 83 80 83 57 q 87 117 83 103 q 107 146 90 132 q 156 160 124 160 q 206 146 189 160 q 227 117 224 132 q 231 66 231 103 q 212 -16 231 29 q 163 -94 193 -61 q 82 -172 117 -146 l 46 -131 q 75 -101 65 -112 q 103 -21 103 -69 z "},"“":{"ha":617,"x_min":103,"x_max":514,"o":"m 232 936 q 241 890 232 922 q 250 833 250 858 q 247 792 250 808 q 226 762 243 776 q 169 747 208 747 q 117 771 131 747 q 103 839 103 794 q 122 930 103 883 q 171 1011 140 976 q 251 1088 217 1061 l 289 1046 q 232 936 232 996 m 458 936 q 467 890 458 922 q 476 837 476 858 q 474 803 476 815 q 467 775 472 790 q 406 747 454 747 q 344 771 358 747 q 329 839 329 794 q 348 930 329 883 q 397 1011 367 976 q 478 1088 443 1061 l 514 1046 q 458 936 458 997 z "},"”":{"ha":617,"x_min":103,"x_max":514,"o":"m 385 888 q 385 900 385 888 q 376 945 385 913 q 367 1002 367 978 q 370 1042 367 1026 q 391 1073 374 1058 q 447 1088 408 1088 q 500 1064 486 1088 q 514 989 514 1040 q 478 875 514 938 q 415 789 442 813 q 365 747 389 765 l 328 790 q 371 839 357 815 q 385 888 385 863 m 158 900 q 149 945 158 913 q 140 999 140 978 q 142 1032 140 1019 q 150 1058 144 1044 q 210 1088 163 1088 q 273 1064 258 1088 q 288 989 288 1040 q 251 875 288 938 q 189 789 215 813 q 139 747 163 765 l 103 790 q 158 900 158 839 z "},"„":{"ha":540,"x_min":46,"x_max":457,"o":"m 328 -33 q 328 -21 328 -33 q 319 24 328 -8 q 310 81 310 57 q 313 122 310 106 q 334 152 317 138 q 390 167 351 167 q 443 143 429 167 q 457 68 457 119 q 421 -46 457 17 q 358 -132 385 -108 q 308 -174 332 -156 l 271 -131 q 314 -82 300 -106 q 328 -33 328 -58 m 101 -21 q 92 24 101 -8 q 83 78 83 57 q 85 111 83 99 q 94 139 88 124 q 153 167 106 167 q 216 143 201 167 q 231 68 231 119 q 194 -46 231 17 q 132 -132 158 -108 q 82 -174 106 -156 l 46 -131 q 101 -21 101 -82 z "},"†":{"ha":622,"x_min":25,"x_max":597,"o":"m 597 794 l 597 686 l 531 686 l 372 701 l 353 0 l 269 0 l 250 701 l 92 686 l 25 686 l 25 794 l 92 794 l 247 778 l 242 1014 l 381 1014 l 374 778 l 531 794 l 597 794 z "},"‡":{"ha":622,"x_min":25,"x_max":597,"o":"m 25 219 l 25 328 l 92 328 l 258 311 l 269 507 l 258 703 l 92 686 l 25 686 l 25 794 l 92 794 l 254 778 l 242 1014 l 381 1014 l 367 778 l 531 794 l 597 794 l 597 686 l 531 686 l 363 701 l 353 507 l 363 311 l 531 328 l 597 328 l 597 219 l 531 219 l 367 235 l 381 0 l 242 0 l 254 235 l 92 219 l 25 219 z "},"•":{"ha":369,"x_min":71,"x_max":296,"o":"m 280 372 q 275 362 280 372 q 245 341 269 351 q 177 331 221 331 q 107 351 133 331 q 76 396 81 372 q 71 458 71 419 q 76 520 71 496 q 107 566 81 544 q 177 588 133 588 q 245 576 221 588 q 281 544 269 565 q 296 470 296 511 q 293 411 296 429 q 280 372 290 393 z "},"…":{"ha":961,"x_min":83,"x_max":878,"o":"m 230 33 q 228 25 230 33 q 208 3 226 17 q 158 -11 190 -11 q 108 3 125 -11 q 87 33 90 17 q 83 70 83 49 q 85 104 83 92 q 94 131 88 117 q 156 160 106 160 q 219 137 206 160 q 233 81 233 114 q 230 33 233 49 m 552 33 q 550 25 552 33 q 531 3 549 17 q 480 -11 513 -11 q 430 3 447 -11 q 409 33 413 17 q 406 70 406 49 q 408 104 406 92 q 417 131 410 117 q 478 160 428 160 q 542 137 528 160 q 556 81 556 114 q 552 33 556 49 m 874 33 q 873 25 874 33 q 853 3 871 17 q 802 -11 835 -11 q 752 3 769 -11 q 731 33 735 17 q 728 70 728 49 q 730 104 728 92 q 739 131 732 117 q 800 160 750 160 q 864 137 850 160 q 878 81 878 114 q 874 33 878 49 z "},"‰":{"ha":1906,"x_min":69,"x_max":1811,"o":"m 474 -92 l 771 1021 l 856 1021 l 557 -92 l 474 -92 m 1706 11 q 1592 -11 1664 -11 q 1471 30 1519 -11 q 1406 131 1422 71 q 1390 281 1390 192 q 1406 431 1390 371 q 1471 533 1422 492 q 1592 574 1519 574 q 1706 551 1664 574 q 1771 488 1749 529 q 1811 282 1811 413 q 1706 11 1811 67 m 1519 123 q 1531 98 1519 123 q 1601 72 1542 72 q 1683 123 1661 72 q 1704 281 1704 174 q 1683 440 1704 389 q 1601 490 1661 490 q 1519 440 1542 490 q 1497 281 1497 389 q 1519 123 1497 174 m 386 464 q 271 442 343 442 q 150 483 199 442 q 85 584 101 524 q 69 734 69 644 q 85 884 69 824 q 150 985 101 944 q 271 1026 199 1026 q 385 1004 343 1026 q 450 940 428 982 q 490 735 490 865 q 386 464 490 519 m 199 576 q 210 550 199 576 q 281 525 221 525 q 362 576 340 525 q 383 734 383 626 q 362 892 383 842 q 281 943 340 943 q 199 892 221 943 q 176 734 176 842 q 199 576 176 626 m 1150 11 q 1036 -11 1108 -11 q 915 30 964 -11 q 851 131 867 71 q 835 281 835 192 q 851 431 835 371 q 915 533 867 492 q 1036 574 964 574 q 1151 551 1108 574 q 1215 488 1193 529 q 1256 282 1256 413 q 1150 11 1256 67 m 964 123 q 975 98 964 123 q 1046 72 986 72 q 1127 123 1106 72 q 1149 281 1149 174 q 1127 440 1149 389 q 1046 490 1106 490 q 964 440 986 490 q 942 281 942 389 q 964 123 942 174 z "},"‹":{"ha":424,"x_min":39,"x_max":349,"o":"m 349 653 l 179 438 l 349 222 l 276 151 l 39 413 l 39 463 l 276 724 l 349 653 z "},"›":{"ha":424,"x_min":75,"x_max":385,"o":"m 75 222 l 244 438 l 75 653 l 147 724 l 385 463 l 385 413 l 147 151 l 75 222 z "},"⁄":{"ha":376,"x_min":-3,"x_max":379,"o":"m -3 -92 l 294 1021 l 379 1021 l 81 -92 l -3 -92 z "},"€":{"ha":875,"x_min":65,"x_max":824,"o":"m 65 565 l 65 650 l 164 650 q 261 932 181 831 q 515 1033 342 1033 q 741 969 661 1033 q 824 783 821 904 l 718 778 q 660 894 718 853 q 515 935 603 935 q 349 862 401 935 q 283 650 296 789 l 607 650 l 607 565 l 278 565 l 278 449 l 607 449 l 607 364 l 283 364 q 349 151 296 224 q 515 79 401 79 q 662 121 604 79 q 719 239 719 163 l 824 233 q 742 46 821 111 q 515 -19 663 -19 q 261 81 342 -19 q 164 364 181 182 l 65 364 l 65 449 l 160 449 q 158 507 158 468 q 160 565 158 546 l 65 565 z "},"™":{"ha":1344,"x_min":97,"x_max":1192,"o":"m 1192 1014 l 1192 400 l 1096 400 l 1096 876 l 940 464 l 851 464 l 708 874 l 708 400 l 614 400 l 614 1014 l 750 1014 l 897 579 l 1057 1014 l 1192 1014 m 97 932 l 97 1014 l 503 1014 l 503 932 l 347 932 l 347 400 l 253 400 l 253 932 l 97 932 z "},"Ω":{"ha":1124,"x_min":100,"x_max":1024,"o":"m 901 585 q 826 847 901 758 q 562 935 750 935 q 298 847 374 935 q 222 585 222 758 q 268 384 222 460 q 425 282 314 308 l 425 0 l 139 0 l 139 83 l 321 83 l 321 221 q 153 360 206 268 q 100 593 100 453 q 209 922 100 808 q 562 1035 318 1035 q 915 922 806 1035 q 1024 593 1024 808 q 801 219 1024 311 l 801 83 l 985 83 l 985 0 l 699 0 l 699 282 q 856 384 810 308 q 901 585 901 460 z "},"∂":{"ha":849,"x_min":75,"x_max":774,"o":"m 774 518 q 676 110 774 240 q 358 -19 579 -19 q 138 49 201 -19 q 75 233 75 118 q 171 583 75 464 q 483 703 267 703 q 660 626 604 703 q 514 992 646 839 l 585 1061 q 774 518 774 858 m 375 76 q 583 167 519 76 q 646 433 646 258 q 468 607 646 607 q 259 516 322 607 q 196 251 196 425 q 375 76 196 76 z "},"∆":{"ha":858,"x_min":-8,"x_max":867,"o":"m 364 1014 l 494 1014 l 867 0 l -8 0 l 364 1014 m 429 879 l 142 83 l 715 83 l 429 879 z "},"∏":{"ha":1038,"x_min":100,"x_max":938,"o":"m 100 931 l 100 1014 l 938 1014 l 938 931 l 847 931 l 847 -264 l 728 -264 l 728 931 l 310 931 l 310 -264 l 190 -264 l 190 931 l 100 931 z "},"∑":{"ha":835,"x_min":71,"x_max":779,"o":"m 71 1014 l 779 1014 l 779 931 l 199 931 l 556 376 l 203 -179 l 779 -179 l 779 -264 l 71 -264 l 71 -179 l 428 376 l 71 931 l 71 1014 z "},"−":{"ha":806,"x_min":128,"x_max":678,"o":"m 128 394 l 128 489 l 678 489 l 678 394 l 128 394 z "},"√":{"ha":768,"x_min":-3,"x_max":840,"o":"m 840 1014 l 840 932 l 650 932 l 361 0 l 231 0 l -3 607 l 118 607 l 290 143 l 556 1014 l 840 1014 z "},"∞":{"ha":874,"x_min":50,"x_max":824,"o":"m 50 442 q 50 510 50 442 q 105 631 50 578 q 273 683 160 683 q 433 592 386 683 q 608 683 478 683 q 769 631 714 683 q 824 442 824 578 q 769 254 824 307 q 600 201 714 201 q 440 292 486 201 q 265 201 394 201 q 105 254 160 201 q 50 442 50 307 m 601 300 q 699 331 665 300 q 732 442 732 363 q 699 553 732 522 q 606 585 665 585 q 519 558 546 585 q 482 469 493 532 l 472 407 q 601 300 499 300 m 272 585 q 175 553 208 585 q 142 442 142 522 q 175 331 142 363 q 267 300 208 300 q 353 325 326 300 q 390 408 379 350 l 401 476 q 272 585 375 585 z "},"∫":{"ha":678,"x_min":-40,"x_max":717,"o":"m 276 -51 l 276 721 q 342 957 276 881 q 543 1033 407 1033 q 717 988 644 1033 l 678 901 q 546 935 622 935 q 399 721 399 935 l 399 -51 q 334 -287 399 -211 q 133 -362 269 -362 q -40 -317 29 -362 l -1 -231 q 129 -264 51 -264 q 276 -51 276 -264 z "},"≈":{"ha":806,"x_min":128,"x_max":678,"o":"m 128 628 q 235 594 175 594 q 402 624 296 594 q 567 654 508 654 q 678 628 626 654 l 678 533 q 567 563 625 563 q 402 533 508 563 q 238 503 296 503 q 128 533 179 503 l 128 628 m 128 350 q 235 317 175 317 q 402 347 296 317 q 567 376 508 376 q 678 350 626 376 l 678 256 q 567 285 625 285 q 402 255 508 285 q 238 225 296 225 q 128 256 179 225 l 128 350 z "},"≠":{"ha":806,"x_min":117,"x_max":667,"o":"m 117 536 l 117 631 l 406 631 l 510 1021 l 594 1021 l 489 631 l 667 631 l 667 536 l 464 536 l 414 347 l 667 347 l 667 253 l 388 253 l 296 -92 l 213 -92 l 304 253 l 117 253 l 117 347 l 329 347 l 381 536 l 117 536 z "},"≤":{"ha":806,"x_min":124,"x_max":682,"o":"m 124 478 l 124 597 l 682 832 l 682 728 l 215 538 l 682 347 l 682 243 l 124 478 m 128 0 l 128 94 l 678 94 l 678 0 l 128 0 z "},"≥":{"ha":806,"x_min":124,"x_max":682,"o":"m 682 597 l 682 478 l 124 243 l 124 347 l 590 538 l 124 728 l 124 832 l 682 597 m 128 0 l 128 94 l 678 94 l 678 0 l 128 0 z "},"◊":{"ha":789,"x_min":58,"x_max":731,"o":"m 329 1069 l 460 1069 l 731 465 l 460 -139 l 329 -139 l 58 465 l 329 1069 m 394 -28 l 610 465 l 394 958 l 179 465 l 394 -28 z "},"":{"ha":1276,"x_min":136,"x_max":1140,"o":"m 815 -124 l 783 -122 q 740 -139 764 -122 q 703 -156 715 -156 l 639 -142 q 606 -150 628 -142 q 573 -158 585 -158 q 539 -141 561 -158 q 499 -124 517 -124 l 465 -126 q 419 -103 444 -126 l 394 -76 q 360 -67 378 -68 q 329 -58 342 -65 q 307 -26 317 -50 q 290 5 297 -1 q 263 19 282 11 q 235 39 243 26 q 225 72 228 51 q 217 101 222 92 q 197 119 211 110 q 167 172 167 144 l 171 207 q 153 244 171 219 q 136 281 136 268 q 144 313 136 293 q 153 345 153 333 q 144 375 153 357 q 136 406 136 393 q 153 447 136 418 q 171 488 171 475 l 169 522 q 192 563 169 543 q 219 590 215 583 q 225 619 222 597 q 233 650 228 642 q 260 667 239 658 q 289 682 282 675 q 306 710 296 689 q 324 740 315 732 q 360 753 333 747 q 394 763 386 758 q 422 790 401 767 q 463 815 443 814 l 499 813 q 538 828 517 813 q 575 844 560 844 l 636 828 l 699 844 q 739 827 717 844 q 778 810 761 810 l 817 814 q 857 791 839 814 q 884 763 875 768 q 914 754 893 758 q 945 743 935 750 q 963 717 956 736 q 977 690 969 697 q 1013 669 985 683 q 1047 643 1040 654 q 1053 610 1053 632 q 1058 581 1054 588 q 1085 555 1061 575 q 1108 513 1108 535 l 1107 478 q 1124 434 1107 460 q 1140 396 1140 408 q 1133 365 1140 383 q 1125 338 1125 347 q 1133 308 1125 328 q 1140 276 1140 288 q 1122 248 1139 265 q 1106 211 1106 231 l 1108 167 q 1086 126 1108 144 q 1060 101 1064 108 q 1051 68 1057 94 q 1037 33 1044 42 q 1012 16 1029 24 q 988 1 994 8 q 968 -28 981 -6 q 946 -58 956 -51 q 912 -72 936 -65 q 881 -82 888 -78 q 855 -105 874 -86 q 815 -124 836 -124 m 639 -8 l 685 -18 q 708 -8 693 -18 q 746 6 729 6 l 767 4 q 796 18 783 4 q 813 35 808 32 q 836 42 818 38 q 862 53 854 47 q 878 74 869 58 q 892 95 888 90 q 910 106 897 100 q 928 117 922 111 q 938 143 933 124 q 945 168 942 163 q 964 186 949 174 q 979 218 979 199 l 978 246 q 990 274 978 261 q 1003 296 1001 288 l 992 340 l 1003 379 q 990 410 1003 390 q 978 442 978 429 l 979 465 q 963 496 979 482 q 943 515 946 510 q 940 537 940 521 q 935 560 939 553 q 910 578 931 568 q 885 594 890 589 q 874 614 879 600 q 861 633 868 628 q 839 642 854 639 q 817 648 824 644 q 797 668 810 651 q 768 685 785 685 l 740 682 q 713 694 728 682 q 683 707 697 707 l 638 694 l 593 707 q 565 695 582 707 q 535 683 549 683 l 511 685 q 481 667 496 685 q 460 647 467 650 q 436 640 454 643 q 411 631 418 636 q 397 610 404 625 q 385 589 390 594 q 365 578 379 583 q 344 565 350 572 q 340 544 342 560 q 334 522 338 528 q 314 502 331 517 q 297 472 297 488 l 299 450 q 287 418 299 439 q 275 386 275 397 l 286 344 l 275 299 q 287 270 275 288 q 299 242 299 253 l 296 219 q 313 188 296 204 q 333 167 331 172 q 338 147 336 161 q 346 123 340 132 q 365 108 351 114 q 385 98 379 103 q 398 75 390 93 q 414 51 406 57 q 435 46 422 46 q 457 42 449 46 q 481 20 465 38 q 513 3 497 3 l 533 4 q 564 -8 547 4 q 589 -21 581 -19 l 639 -8 m 472 510 q 507 545 472 510 q 639 579 542 579 q 806 510 736 579 q 875 343 875 442 q 806 176 875 244 q 639 107 736 107 q 472 176 542 107 q 403 343 403 244 q 472 510 403 442 m 699 406 l 771 406 l 771 500 l 506 500 l 506 406 l 581 406 l 581 163 l 699 163 l 699 406 z "},"ﬁ":{"ha":889,"x_min":78,"x_max":756,"o":"m 397 982 q 289 856 289 982 l 289 794 l 472 794 l 472 713 l 289 713 l 289 0 l 169 0 l 169 713 l 78 713 l 78 794 l 169 794 l 169 856 q 389 1076 169 1076 q 536 1053 471 1076 l 506 963 q 397 982 458 982 m 622 794 l 742 794 l 742 0 l 622 0 l 622 794 m 682 928 q 611 1005 611 928 q 682 1082 611 1082 q 756 1005 756 1082 q 682 928 756 928 z "},"ﬂ":{"ha":889,"x_min":78,"x_max":742,"o":"m 397 982 q 289 856 289 982 l 289 794 l 472 794 l 472 713 l 289 713 l 289 0 l 169 0 l 169 713 l 78 713 l 78 794 l 169 794 l 169 856 q 389 1076 169 1076 q 536 1053 471 1076 l 506 963 q 397 982 458 982 m 742 0 l 622 0 l 622 1053 l 742 1069 l 742 0 z "}}}
